<?xml version="1.0" encoding="UTF-8"?>
<svg id="Layer_1" xmlns="http://www.w3.org/2000/svg" xmlns:xlink="http://www.w3.org/1999/xlink" version="1.1" viewBox="0 0 600 160">
  <!-- Generator: Adobe Illustrator 30.3.0, SVG Export Plug-In . SVG Version: 2.1.1 Build 104)  -->
  <defs>
    <style>
      .st0 {
        fill: none;
      }

      .st1 {
        fill: #747d29;
      }

      .st2 {
        fill: #b2c600;
      }

      .st3 {
        fill: #a6b800;
      }

      .st4 {
        fill: #c2cc00;
      }

      .st5 {
        clip-path: url(#clippath);
      }
    </style>
    <clipPath id="clippath">
      <rect class="st0" x="-1" y="-1" width="602" height="162"/>
    </clipPath>
  </defs>
  <g class="st5">
    <g>
      <path class="st2" d="M-1,161V-1h602v162H-1Z"/>
      <path class="st4" d="M392.25,40.66c-.36.75-.98,1.51-1.87,2.26-27.08,23-56.47,42.2-88.19,57.61-.45.22-.94.33-1.44.31-.5-.02-.98-.15-1.41-.4l-54.5-30.72c-.14-.08-.24-.2-.31-.34-.07-.14-.08-.3-.05-.46,7.45-39.23,26.4-71.71,56.83-97.45.29-.24.66-.36,1.03-.34.38.03.72.2.97.49,19.41,22.22,41.67,40.88,66.77,55.99,9.09,5.46,16.39,9.55,21.91,12.29.07.03.12.08.17.13.05.06.08.12.11.19.02.07.03.14.03.22,0,.07-.03.15-.06.21Z"/>
      <path class="st3" d="M325.7,115.05c-.07-.04-.14-.11-.18-.18-.04-.07-.06-.16-.06-.25,0-.09.03-.17.07-.25.04-.07.11-.13.18-.18,21.72-11.57,41.94-24.58,60.68-39.02,37.79-29.13,68.69-63.93,95.06-103.58.07-.1.15-.18.25-.24.1-.06.21-.1.33-.12.12-.02.23,0,.35.03.11.03.22.09.31.17,30.12,25.59,49.12,57.95,56.99,97.07.04.22.02.45-.08.65-.09.2-.24.37-.44.48l-146.11,82.45c-.25.14-.54.21-.83.21s-.58-.07-.83-.21l-65.69-37.04Z"/>
      <path class="st1" d="M207.2,79.48l155.9,87.91c.07.04.14.1.18.17.04.07.07.15.07.24s-.02.17-.07.24c-.04.07-.1.14-.18.18l-147.24,83.09c-.17.1-.37.15-.57.15s-.39-.05-.57-.15l-33.64-18.98c-.5-.28-.88-.73-1.07-1.26-8.75-24.67-11.31-49.08-7.69-73.23,4.32-28.84,17.84-54.59,34.08-78.18.09-.12.21-.21.36-.24.15-.03.3-.01.43.06Z"/>
      <path class="st1" d="M577.05,79.4c.13-.07.28-.09.43-.06.15.03.27.12.36.24,16.23,23.6,29.74,49.37,34.04,78.2,3.6,24.16,1.02,48.57-7.75,73.23-.19.53-.57.98-1.07,1.26l-33.65,18.96c-.17.1-.37.15-.57.15s-.39-.05-.57-.15l-147.2-83.2c-.07-.04-.14-.1-.18-.18-.04-.07-.07-.16-.07-.24s.02-.17.07-.24c.04-.07.1-.13.18-.17l155.97-87.81Z"/>
      <path class="st1" d="M390.57,183.9l6.79,20.83-35.25,46.81,172.33,19.16,38.29-21.35-113.68-103.59-68.48,38.14Z"/>
    </g>
  </g>
</svg>