<?xml version="1.0" encoding="UTF-8"?>
<svg id="Layer_1" xmlns="http://www.w3.org/2000/svg" version="1.1" viewBox="0 0 99.63 24">
  <!-- Generator: Adobe Illustrator 30.3.0, SVG Export Plug-In . SVG Version: 2.1.1 Build 104)  -->
  <defs>
    <style>
      .st0 {
        fill: #0c0a09;
      }

      .st1 {
        fill: #b2c600;
      }

      .st2 {
        fill: #a6b800;
      }

      .st3 {
        fill: #808e02;
      }
    </style>
  </defs>
  <path class="st0" d="M32.83,18.18c-1.13,0-2.12-.18-2.95-.55-.83-.37-1.48-.9-1.94-1.59-.46-.69-.7-1.51-.74-2.47h2.25c.03.58.2,1.07.49,1.46.3.39.7.69,1.19.89.5.2,1.06.3,1.69.3s1.21-.1,1.7-.29c.49-.2.88-.48,1.15-.84.29-.36.43-.78.43-1.25,0-.42-.11-.76-.34-1.04-.23-.28-.55-.51-.98-.71-.42-.2-.92-.37-1.51-.52l-1.69-.44c-1.31-.34-2.31-.83-3-1.46-.68-.64-1.03-1.47-1.03-2.49,0-.86.23-1.62.68-2.26.46-.64,1.08-1.14,1.87-1.49.8-.36,1.7-.54,2.72-.54s1.94.18,2.72.55c.78.36,1.38.86,1.82,1.51.44.64.67,1.39.7,2.24h-2.18c-.07-.74-.39-1.32-.95-1.73-.56-.41-1.27-.62-2.15-.62-.6,0-1.12.1-1.57.29-.44.19-.79.45-1.05.79-.25.33-.37.71-.37,1.14s.13.78.38,1.07c.26.28.59.51,1.01.69.42.18.87.33,1.35.45l1.49.39c.57.14,1.11.32,1.62.54.52.22.98.49,1.37.83.4.33.72.72.96,1.17.23.46.35,1,.35,1.61,0,.86-.22,1.62-.67,2.28-.44.66-1.07,1.17-1.89,1.54-.82.36-1.81.55-2.96.55ZM49.75,12.41c0-.94-.13-1.75-.4-2.45-.26-.7-.62-1.27-1.08-1.73-.45-.46-.98-.81-1.57-1.04-.6-.23-1.23-.35-1.91-.35-1,0-1.88.24-2.65.73-.76.48-1.34,1.15-1.76,2.01-.42.85-.63,1.84-.63,2.96s.21,2.1.63,2.95c.42.84,1.02,1.5,1.79,1.98.78.47,1.71.71,2.79.71.79,0,1.5-.13,2.14-.39.64-.27,1.17-.63,1.59-1.1.43-.46.73-1,.89-1.61l-2.05-.32c-.11.35-.29.64-.53.89-.24.24-.53.42-.88.55-.34.13-.72.19-1.14.19-.62,0-1.17-.14-1.63-.41-.46-.28-.82-.68-1.08-1.19-.22-.47-.33-1.04-.35-1.67h7.83v-.7ZM42.25,10.23c.23-.49.56-.88,1-1.16.43-.29.95-.43,1.56-.43s1.11.14,1.53.43c.42.28.75.67.97,1.18.16.37.24.79.28,1.24h-5.65c.04-.45.13-.88.31-1.26ZM58.98,7.03v1.7h-.12c-.16-.29-.38-.57-.65-.86s-.62-.52-1.05-.72c-.42-.19-.93-.29-1.53-.29-.9,0-1.69.23-2.39.68-.7.45-1.24,1.1-1.64,1.95-.39.84-.59,1.85-.59,3.01s.2,2.16.59,3.01c.39.84.94,1.5,1.63,1.96.7.46,1.5.69,2.4.69.6,0,1.1-.1,1.51-.29.42-.2.76-.44,1.04-.74.27-.29.49-.58.66-.88h.09v5.84h2.16V7.03h-2.11ZM58.65,14.49c-.23.57-.55,1.02-.99,1.33-.43.32-.96.48-1.57.48s-1.12-.16-1.55-.48c-.43-.33-.76-.77-.99-1.34-.23-.58-.34-1.24-.34-1.99s.11-1.42.33-1.98c.23-.57.55-1.01.99-1.32.43-.32.95-.48,1.56-.48s1.14.16,1.57.47c.44.31.77.75,1,1.32.23.56.34,1.23.34,1.99s-.12,1.42-.35,2ZM70.49,7.03v6.4c0,.6-.11,1.12-.34,1.53-.23.41-.53.72-.92.94-.38.21-.82.31-1.31.31-.72,0-1.29-.22-1.71-.67-.42-.44-.63-1.08-.63-1.89v-6.62h-2.15v6.89c0,.91.16,1.68.48,2.3.33.62.77,1.1,1.34,1.41.57.31,1.23.47,1.97.47.86,0,1.6-.23,2.22-.69.45-.33.82-.81,1.12-1.42v1.95h2.09V7.03h-2.16ZM84.11,9.55c-.42-.86-1.02-1.52-1.79-1.99-.77-.48-1.67-.72-2.71-.72s-1.93.24-2.7.72c-.77.47-1.37,1.13-1.8,1.99-.42.85-.64,1.84-.64,2.98s.21,2.1.64,2.95c.43.85,1.03,1.51,1.8,1.99.77.47,1.67.71,2.7.71s1.94-.24,2.71-.71c.77-.48,1.37-1.14,1.79-1.99.43-.85.65-1.83.65-2.95s-.22-2.13-.65-2.98ZM82.23,14.46c-.22.58-.55,1.04-.99,1.37-.44.33-.98.5-1.63.5s-1.19-.17-1.63-.5c-.43-.34-.76-.79-.99-1.36-.22-.58-.33-1.23-.33-1.95s.11-1.37.33-1.95c.23-.58.56-1.04,1-1.37.44-.34.98-.51,1.62-.51s1.19.17,1.63.51c.44.34.77.8.99,1.37.23.58.34,1.23.34,1.95s-.11,1.36-.34,1.94ZM86.59,17.94V7.03h2.15v10.91h-2.15ZM87.67,5.29c-.38,0-.7-.13-.97-.38-.27-.26-.4-.57-.4-.93s.13-.67.4-.92c.27-.25.58-.38.96-.38s.7.13.97.38c.27.25.41.55.41.92s-.14.67-.41.93c-.27.25-.58.38-.96.38ZM99.26,8.84c-.25-.48-.58-.87-1-1.15-.41-.29-.87-.5-1.38-.63-.51-.13-1.03-.19-1.54-.19-.73,0-1.41.11-2.03.34-.62.22-1.15.55-1.59,1-.44.44-.74.99-.92,1.66l2.06.34c.08-.28.23-.54.44-.78s.49-.43.84-.58c.35-.15.75-.22,1.21-.22s.85.08,1.16.23c.32.15.56.37.72.65.17.28.25.61.25,1v.07c0,.26-.09.44-.28.56-.18.11-.47.2-.88.25-.4.05-.93.11-1.58.2-.53.06-1.05.15-1.55.27-.5.12-.96.3-1.36.53s-.73.55-.97.95c-.24.39-.36.9-.36,1.52,0,.72.16,1.32.49,1.82.33.49.78.86,1.33,1.12.56.25,1.2.38,1.9.38.6,0,1.12-.08,1.54-.25.42-.17.77-.39,1.05-.66.28-.27.49-.54.64-.83h.08v1.51h2.1v-7.33c0-.7-.12-1.29-.37-1.77ZM97.49,13.96c0,.43-.11.84-.33,1.21-.21.37-.53.67-.95.91-.41.23-.92.35-1.52.35-.4,0-.76-.06-1.08-.18-.31-.12-.55-.29-.73-.52-.17-.23-.26-.52-.26-.86,0-.37.1-.67.3-.9.21-.23.48-.41.82-.53.34-.13.71-.22,1.11-.27.21-.03.45-.06.72-.1.27-.04.54-.08.81-.13.27-.05.5-.1.7-.16.2-.06.34-.12.42-.19v1.35Z"/>
  <path class="st1" d="M10.05,6.25c-.91-.4-1.76-.93-2.55-1.58-.15-.12-.3-.26-.47-.43,0,0-.02-.02-.02-.04,0-.01,0-.03,0-.04.3-.56.7-1.03,1.21-1.46.36-.3.7-.56,1.03-.79.02-.01.03-.02.05-.02.02,0,.04,0,.05.02.53.35,1.01.74,1.45,1.17.31.31.56.63.73.96.14.28.02.44-.17.71-.36.53-.77,1.02-1.24,1.47,0,0-.02.02-.03.02-.01,0-.03,0-.04,0Z"/>
  <path class="st1" d="M9.31,6.99s-.04.06-.08.09c-1.14.96-2.37,1.76-3.7,2.4-.02,0-.04.01-.06.01-.02,0-.04,0-.06-.02l-2.29-1.28s-.01,0-.01-.01c0,0,0-.01,0-.02.31-1.63,1.11-2.99,2.39-4.06.01-.01.03-.02.04-.01.02,0,.03,0,.04.02.82.93,1.75,1.7,2.8,2.33.38.23.69.4.92.51,0,0,0,0,0,0,0,0,0,0,0,0,0,0,0,0,0,0,0,0,0,0,0,0Z"/>
  <path class="st2" d="M6.51,10.08s0,0,0,0,0,0,0-.01,0,0,0-.01c0,0,0,0,0,0,.91-.48,1.76-1.02,2.55-1.62,1.59-1.21,2.89-2.66,3.99-4.31,0,0,0,0,.01-.01,0,0,0,0,.01,0,0,0,0,0,.01,0,0,0,0,0,.01,0,1.27,1.07,2.06,2.41,2.39,4.04,0,0,0,.02,0,.03,0,0-.01.02-.02.02l-6.14,3.43s-.02,0-.03,0-.02,0-.03,0l-2.76-1.54Z"/>
  <path class="st3" d="M1.53,8.6l6.55,3.66s0,0,0,0c0,0,0,0,0,0s0,0,0,.01c0,0,0,0,0,0l-6.19,3.46s-.02,0-.02,0-.02,0-.02,0l-1.41-.79s-.04-.03-.04-.05C.02,13.89-.09,12.87.07,11.87c.18-1.2.75-2.27,1.43-3.25,0,0,0,0,.02-.01,0,0,.01,0,.02,0Z"/>
  <path class="st3" d="M18.53,11.86c-.18-1.2-.75-2.27-1.43-3.26,0,0,0,0-.02-.01,0,0-.01,0-.02,0l-4.95,2.76h0s-2.81,1.55-2.81,1.55c0,0,0,0-.01,0l-6.19,3.46s0,0-.01.01c0,0,0,0,0,.02s0,.01,0,.02c0,0,0,0,.01.01l6.2,3.46s0,0,.01,0,.01,0,.01,0l5.96-3.33h0l1.46-.81s0,0,0,0l1.41-.79s.04-.03.04-.05c.37-1.03.48-2.04.33-3.05Z"/>
</svg>