<svg width="624" height="366" viewBox="0 0 624 366" fill="none" xmlns="http://www.w3.org/2000/svg">
<g clip-path="url(#clip0_19176_463)">
<rect y="0.175537" width="624" height="365.824" rx="4" fill="white"/>
<rect y="0.175537" width="624" height="365.824" rx="4" fill="#F5EDCE" fill-opacity="0.15"/>
<g opacity="0.05">
<ellipse cx="-48.557" cy="10.8105" rx="84.1393" ry="84.1386" fill="#FF5522"/>
<ellipse cx="131.721" cy="10.8105" rx="84.1393" ry="84.1386" fill="#FF5522"/>
<ellipse cx="312" cy="10.8105" rx="84.1393" ry="84.1386" fill="#FF5522"/>
<ellipse cx="492.279" cy="10.8105" rx="84.1393" ry="84.1386" fill="#FF5522"/>
<ellipse cx="672.557" cy="10.8105" rx="84.1393" ry="84.1386" fill="#FF5522"/>
<ellipse cx="-48.557" cy="183.088" rx="84.1393" ry="84.1386" fill="#FF5522"/>
<ellipse cx="131.721" cy="183.088" rx="84.1393" ry="84.1386" fill="#FF5522"/>
<ellipse cx="312" cy="183.088" rx="84.1393" ry="84.1386" fill="#FF5522"/>
<ellipse cx="492.279" cy="183.088" rx="84.1393" ry="84.1386" fill="#FF5522"/>
<ellipse cx="672.557" cy="183.088" rx="84.1393" ry="84.1386" fill="#FF5522"/>
<ellipse cx="-48.557" cy="355.365" rx="84.1393" ry="84.1386" fill="#FF5522"/>
<ellipse cx="131.721" cy="355.365" rx="84.1393" ry="84.1386" fill="#FF5522"/>
<ellipse cx="312" cy="355.365" rx="84.1393" ry="84.1386" fill="#FF5522"/>
<ellipse cx="492.279" cy="355.365" rx="84.1393" ry="84.1386" fill="#FF5522"/>
<ellipse cx="672.557" cy="355.365" rx="84.1393" ry="84.1386" fill="#FF5522"/>
</g>
<ellipse cx="312" cy="183.088" rx="84.1393" ry="84.1386" fill="#FF5522"/>
<path d="M396.14 111.301C276.299 97.7899 247.71 207.839 234.316 254.874C239.642 255.475 244.964 256.075 250.281 256.674C258.604 230.645 273.575 217.5 295.196 217.238C327.604 216.846 354.724 191.586 365.416 168.519L354.333 159.178C357.296 156.816 360.26 154.453 363.223 152.09C372.113 145.001 381.487 133.922 396.14 111.301Z" fill="#F5EDCE"/>
<path d="M372.58 102.688C251.98 102.688 235.9 215.248 227.86 263.487C233.22 263.487 238.576 263.487 243.926 263.487C249.281 236.689 262.685 221.95 284.14 219.268C316.3 215.248 340.42 187.108 348.46 162.988L336.4 154.948C339.08 152.268 341.761 149.588 344.44 146.908C352.48 138.868 360.554 126.808 372.58 102.688Z" fill="#FF5522"/>
</g>
<rect x="0.5" y="0.675537" width="623" height="364.824" rx="3.5" stroke="#09090B"/>
<defs>
<clipPath id="clip0_19176_463">
<rect y="0.175537" width="624" height="365.824" rx="4" fill="white"/>
</clipPath>
</defs>
</svg>
