<svg width="624" height="366" viewBox="0 0 624 366" fill="none" xmlns="http://www.w3.org/2000/svg">
<g clip-path="url(#clip0_19176_702)">
<rect width="624" height="365.824" rx="4" fill="#09090B"/>
<rect width="624" height="365.824" rx="4" fill="#F5EDCE" fill-opacity="0.15"/>
<g opacity="0.05">
<ellipse cx="-48.557" cy="10.635" rx="84.1393" ry="84.1386" fill="#FF5522"/>
<ellipse cx="131.721" cy="10.635" rx="84.1393" ry="84.1386" fill="#FF5522"/>
<ellipse cx="312" cy="10.635" rx="84.1393" ry="84.1386" fill="#FF5522"/>
<ellipse cx="492.279" cy="10.635" rx="84.1393" ry="84.1386" fill="#FF5522"/>
<ellipse cx="672.557" cy="10.635" rx="84.1393" ry="84.1386" fill="#FF5522"/>
<ellipse cx="-48.557" cy="182.912" rx="84.1393" ry="84.1386" fill="#FF5522"/>
<ellipse cx="131.721" cy="182.912" rx="84.1393" ry="84.1386" fill="#FF5522"/>
<ellipse cx="312" cy="182.912" rx="84.1393" ry="84.1386" fill="#FF5522"/>
<ellipse cx="492.279" cy="182.912" rx="84.1393" ry="84.1386" fill="#FF5522"/>
<ellipse cx="672.557" cy="182.912" rx="84.1393" ry="84.1386" fill="#FF5522"/>
<ellipse cx="-48.557" cy="355.189" rx="84.1393" ry="84.1386" fill="#FF5522"/>
<ellipse cx="131.721" cy="355.189" rx="84.1393" ry="84.1386" fill="#FF5522"/>
<ellipse cx="312" cy="355.189" rx="84.1393" ry="84.1386" fill="#FF5522"/>
<ellipse cx="492.279" cy="355.189" rx="84.1393" ry="84.1386" fill="#FF5522"/>
<ellipse cx="672.557" cy="355.189" rx="84.1393" ry="84.1386" fill="#FF5522"/>
</g>
<ellipse cx="312" cy="182.912" rx="84.1393" ry="84.1386" fill="#FF5522"/>
<path d="M396.14 111.125C276.299 97.6141 247.71 207.663 234.316 254.698C239.642 255.299 244.964 255.899 250.281 256.498C258.604 230.469 273.575 217.324 295.196 217.062C327.604 216.671 354.724 191.41 365.416 168.343L354.333 159.003C357.296 156.64 360.26 154.277 363.223 151.914C372.113 144.825 381.487 133.746 396.14 111.125Z" fill="#F5EDCE"/>
<path d="M372.58 102.513C251.98 102.513 235.9 215.072 227.86 263.311C233.22 263.311 238.576 263.311 243.926 263.311C249.281 236.514 262.685 221.774 284.14 219.092C316.3 215.072 340.42 186.932 348.46 162.812L336.4 154.772C339.08 152.092 341.761 149.412 344.44 146.732C352.48 138.692 360.554 126.632 372.58 102.513Z" fill="#FF5522"/>
</g>
<rect x="0.5" y="0.5" width="623" height="364.824" rx="3.5" stroke="#52525C"/>
<defs>
<clipPath id="clip0_19176_702">
<rect width="624" height="365.824" rx="4" fill="white"/>
</clipPath>
</defs>
</svg>
