<svg width="127" height="24" viewBox="0 0 127 24" fill="none" xmlns="http://www.w3.org/2000/svg">
<path d="M29.2518 20.3406L35.3983 2.39052H41.1097L47.2562 20.3406H43.0135L38.4716 5.49098H38.0636L33.4945 20.3406H29.2518ZM32.7058 16.805V14.1396H44.3733V16.805H32.7058ZM48.4063 20.3406V0.89468H52.2683V20.3406H48.4063ZM54.7817 20.3406V11.2024V6.06212H57.9094V10.3321H58.4261C58.68 9.28044 59.0154 8.4192 59.4324 7.74834C59.8494 7.05935 60.348 6.5426 60.9283 6.19811C61.5266 5.85361 62.2246 5.68136 63.0224 5.68136C63.8746 5.68136 64.5817 5.87174 65.1438 6.2525C65.7059 6.63326 66.141 7.16814 66.4493 7.85713C66.7575 8.52799 66.9569 9.35296 67.0476 10.3321H67.4827C67.7547 9.26231 68.1173 8.38294 68.5706 7.69394C69.042 7.00495 69.595 6.49727 70.2296 6.17091C70.8824 5.84454 71.5986 5.68136 72.3782 5.68136C73.1579 5.68136 73.8378 5.83548 74.418 6.14371C75.0163 6.45195 75.5149 6.9143 75.9138 7.53076C76.3127 8.1291 76.6119 8.89062 76.8113 9.81531C77.0108 10.7219 77.1105 11.7735 77.1105 12.9702V20.3406H73.1941V13.4597C73.1941 12.4806 73.1125 11.6647 72.9493 11.012C72.7862 10.3411 72.5323 9.84251 72.1878 9.51615C71.8433 9.18978 71.3991 9.0266 70.8552 9.0266C70.2568 9.0266 69.7401 9.23511 69.3049 9.65213C68.8698 10.051 68.5253 10.604 68.2715 11.3112C68.0176 12.0183 67.8816 12.8251 67.8635 13.7317V20.3406H64.0287V13.5685C64.0287 12.5532 63.9381 11.7191 63.7567 11.0664C63.5754 10.3955 63.3125 9.88784 62.968 9.54334C62.6235 9.19885 62.1884 9.0266 61.6626 9.0266C61.0461 9.0266 60.5203 9.23511 60.0851 9.65213C59.65 10.051 59.3146 10.6131 59.0789 11.3383C58.8431 12.0636 58.7162 12.8705 58.6981 13.7589V20.3406H54.7817ZM85.903 20.7213C84.4706 20.7213 83.2105 20.4403 82.1226 19.8782C81.0347 19.298 80.1826 18.4549 79.5661 17.3489C78.9496 16.2248 78.6414 14.8286 78.6414 13.1606C78.6414 11.4925 78.9496 10.1054 79.5661 8.9994C80.2007 7.89339 81.0619 7.06841 82.1498 6.52447C83.2558 5.9624 84.5069 5.68136 85.903 5.68136C87.3354 5.68136 88.5955 5.9624 89.6834 6.52447C90.7894 7.08654 91.6507 7.92965 92.2671 9.0538C92.9017 10.1598 93.219 11.5469 93.219 13.2149C93.219 14.9012 92.8926 16.3063 92.2399 17.4305C91.6053 18.5365 90.735 19.3615 89.629 19.9054C88.5411 20.4494 87.2991 20.7213 85.903 20.7213ZM86.039 17.8112C86.7461 17.8112 87.3354 17.6481 87.8068 17.3217C88.2963 16.9953 88.659 16.5058 88.8947 15.8531C89.1485 15.1822 89.2754 14.3754 89.2754 13.4325C89.2754 12.4353 89.1395 11.5922 88.8675 10.9032C88.6136 10.1961 88.2329 9.6612 87.7252 9.29857C87.2175 8.91781 86.5739 8.72743 85.7942 8.72743C85.1234 8.72743 84.5432 8.89062 84.0536 9.21698C83.5641 9.52521 83.1924 10.0148 82.9385 10.6856C82.6847 11.3384 82.5578 12.1452 82.5578 13.1062C82.5578 14.6473 82.866 15.8168 83.4825 16.6146C84.0989 17.4124 84.9511 17.8112 86.039 17.8112ZM94.9154 20.3406V11.6919V6.06212H98.1247L98.0975 10.3321H98.6414C98.8771 9.29857 99.2126 8.43733 99.6477 7.74834C100.083 7.05935 100.627 6.5426 101.28 6.19811C101.95 5.85361 102.739 5.68136 103.646 5.68136C105.296 5.68136 106.547 6.26157 107.399 7.42197C108.269 8.58238 108.704 10.4046 108.704 12.8886V20.3406H104.761V13.3237C104.761 11.8007 104.534 10.6947 104.081 10.0057C103.646 9.29857 103.002 8.94501 102.15 8.94501C101.425 8.94501 100.817 9.17165 100.328 9.62494C99.8381 10.0782 99.4664 10.6766 99.2126 11.4199C98.9769 12.1452 98.8499 12.9611 98.8318 13.8677V20.3406H94.9154ZM116.18 20.7213C114.983 20.7213 113.931 20.4131 113.025 19.7966C112.136 19.1802 111.447 18.3099 110.958 17.1857C110.468 16.0616 110.224 14.7289 110.224 13.1878C110.224 11.7372 110.441 10.4499 110.876 9.32577C111.311 8.20162 111.955 7.32225 112.807 6.68765C113.659 6.05306 114.72 5.73576 115.989 5.73576C116.914 5.73576 117.694 5.90801 118.328 6.2525C118.963 6.597 119.48 7.10468 119.879 7.77554C120.296 8.42827 120.622 9.21698 120.858 10.1417H121.483C121.356 9.56148 121.238 8.9994 121.13 8.45546C121.039 7.89339 120.966 7.35851 120.912 6.85084C120.858 6.34316 120.83 5.89894 120.83 5.51818V0.89468H124.747V13.3237V20.3406H121.483V16.2066H120.939C120.74 17.222 120.432 18.0651 120.014 18.7359C119.597 19.4068 119.063 19.9054 118.41 20.2318C117.775 20.5582 117.032 20.7213 116.18 20.7213ZM117.485 17.5121C118.084 17.5121 118.591 17.3852 119.008 17.1313C119.425 16.8775 119.77 16.5511 120.042 16.1522C120.314 15.7352 120.513 15.291 120.64 14.8196C120.767 14.33 120.83 13.8767 120.83 13.4597V12.943C120.83 12.5985 120.776 12.2449 120.667 11.8823C120.577 11.5015 120.441 11.1298 120.259 10.7672C120.078 10.4046 119.851 10.0873 119.579 9.81531C119.307 9.52521 118.99 9.29857 118.627 9.13539C118.265 8.97221 117.866 8.89061 117.431 8.89061C116.778 8.89061 116.225 9.07193 115.772 9.43456C115.318 9.79718 114.965 10.3049 114.711 10.9576C114.457 11.5922 114.33 12.3356 114.33 13.1878C114.33 14.0581 114.457 14.8196 114.711 15.4723C114.983 16.125 115.355 16.6327 115.826 16.9953C116.298 17.3398 116.851 17.5121 117.485 17.5121Z" fill="#FAFAFA"/>
<path fill-rule="evenodd" clip-rule="evenodd" d="M1.3143 2.87047C0 4.54906 0 7.0327 0 12C0 16.9673 0 19.4509 1.3143 21.1295C1.62237 21.523 1.97701 21.8776 2.37047 22.1857C4.04906 23.5 6.50228 23.5 11.4087 23.5C16.3152 23.5 18.7684 23.5 20.447 22.1857C20.8404 21.8776 21.1951 21.523 21.5031 21.1295C22.8174 19.4509 22.8174 16.9673 22.8174 12C22.8174 7.0327 22.8174 4.54906 21.5031 2.87047C21.1951 2.47701 20.8404 2.12237 20.447 1.8143C18.7684 0.5 16.3152 0.5 11.4087 0.5C6.50228 0.5 4.04906 0.5 2.37047 1.8143C1.97701 2.12237 1.62237 2.47701 1.3143 2.87047ZM4.85188 18.6094C7.59533 21.3748 12.755 20.6575 16.3764 17.0071C19.9978 13.3568 20.7095 8.15579 17.966 5.39038C15.2226 2.62498 10.0628 3.34236 6.44148 6.9927C2.82011 10.643 2.10842 15.844 4.85188 18.6094Z" fill="url(#paint0_radial_18643_9966)"/>
<ellipse cx="13.6477" cy="9.85688" rx="2.31371" ry="2.33222" fill="#00BBA7"/>
<defs>
<radialGradient id="paint0_radial_18643_9966" cx="0" cy="0" r="1" gradientUnits="userSpaceOnUse" gradientTransform="translate(5.26818 5.98244) rotate(70.6826) scale(18.5626 18.4476)">
<stop stop-color="#009689"/>
<stop offset="1" stop-color="#00BBA7"/>
</radialGradient>
</defs>
</svg>
