<svg width="127" height="24" viewBox="0 0 127 24" fill="none" xmlns="http://www.w3.org/2000/svg">
<path d="M29.482 20.3406L35.6285 2.39052H41.3399L47.4864 20.3406H43.2437L38.7018 5.49098H38.2938L33.7247 20.3406H29.482ZM32.936 16.805V14.1396H44.6035V16.805H32.936ZM48.6366 20.3406V0.89468H52.4985V20.3406H48.6366ZM55.0119 20.3406V11.2024V6.06212H58.1396V10.3321H58.6563C58.9102 9.28044 59.2456 8.4192 59.6626 7.74834C60.0797 7.05935 60.5783 6.5426 61.1585 6.19811C61.7568 5.85361 62.4549 5.68136 63.2526 5.68136C64.1048 5.68136 64.8119 5.87174 65.374 6.2525C65.9361 6.63326 66.3712 7.16814 66.6795 7.85713C66.9877 8.52799 67.1872 9.35296 67.2778 10.3321H67.713C67.9849 9.26231 68.3476 8.38294 68.8008 7.69394C69.2723 7.00495 69.8253 6.49727 70.4599 6.17091C71.1126 5.84454 71.8288 5.68136 72.6084 5.68136C73.3881 5.68136 74.068 5.83548 74.6482 6.14371C75.2466 6.45195 75.7452 6.9143 76.1441 7.53076C76.5429 8.1291 76.8421 8.89062 77.0416 9.81531C77.241 10.7219 77.3407 11.7735 77.3407 12.9702V20.3406H73.4243V13.4597C73.4243 12.4806 73.3428 11.6647 73.1796 11.012C73.0164 10.3411 72.7626 9.84251 72.4181 9.51615C72.0736 9.18978 71.6293 9.0266 71.0854 9.0266C70.4871 9.0266 69.9703 9.23511 69.5352 9.65213C69.1 10.051 68.7555 10.604 68.5017 11.3112C68.2478 12.0183 68.1119 12.8251 68.0937 13.7317V20.3406H64.2589V13.5685C64.2589 12.5532 64.1683 11.7191 63.987 11.0664C63.8057 10.3955 63.5427 9.88784 63.1983 9.54334C62.8538 9.19885 62.4186 9.0266 61.8928 9.0266C61.2763 9.0266 60.7505 9.23511 60.3154 9.65213C59.8802 10.051 59.5448 10.6131 59.3091 11.3383C59.0734 12.0636 58.9464 12.8705 58.9283 13.7589V20.3406H55.0119ZM86.1332 20.7213C84.7009 20.7213 83.4407 20.4403 82.3528 19.8782C81.265 19.298 80.4128 18.4549 79.7963 17.3489C79.1799 16.2248 78.8716 14.8286 78.8716 13.1606C78.8716 11.4925 79.1799 10.1054 79.7963 8.9994C80.4309 7.89339 81.2922 7.06841 82.38 6.52447C83.4861 5.9624 84.7371 5.68136 86.1332 5.68136C87.5656 5.68136 88.8257 5.9624 89.9136 6.52447C91.0196 7.08654 91.8809 7.92965 92.4973 9.0538C93.1319 10.1598 93.4492 11.5469 93.4492 13.2149C93.4492 14.9012 93.1229 16.3063 92.4701 17.4305C91.8355 18.5365 90.9652 19.3615 89.8592 19.9054C88.7713 20.4494 87.5293 20.7213 86.1332 20.7213ZM86.2692 17.8112C86.9763 17.8112 87.5656 17.6481 88.037 17.3217C88.5266 16.9953 88.8892 16.5058 89.1249 15.8531C89.3787 15.1822 89.5057 14.3754 89.5057 13.4325C89.5057 12.4353 89.3697 11.5922 89.0977 10.9032C88.8439 10.1961 88.4631 9.6612 87.9554 9.29857C87.4478 8.91781 86.8041 8.72743 86.0244 8.72743C85.3536 8.72743 84.7734 8.89062 84.2838 9.21698C83.7943 9.52521 83.4226 10.0148 83.1688 10.6856C82.9149 11.3384 82.788 12.1452 82.788 13.1062C82.788 14.6473 83.0962 15.8168 83.7127 16.6146C84.3292 17.4124 85.1813 17.8112 86.2692 17.8112ZM95.1457 20.3406V11.6919V6.06212H98.3549L98.3277 10.3321H98.8717C99.1074 9.29857 99.4428 8.43733 99.8779 7.74834C100.313 7.05935 100.857 6.5426 101.51 6.19811C102.181 5.85361 102.969 5.68136 103.876 5.68136C105.526 5.68136 106.777 6.26157 107.629 7.42197C108.499 8.58238 108.935 10.4046 108.935 12.8886V20.3406H104.991V13.3237C104.991 11.8007 104.764 10.6947 104.311 10.0057C103.876 9.29857 103.232 8.94501 102.38 8.94501C101.655 8.94501 101.047 9.17165 100.558 9.62494C100.068 10.0782 99.6966 10.6766 99.4428 11.4199C99.2071 12.1452 99.0802 12.9611 99.062 13.8677V20.3406H95.1457ZM116.41 20.7213C115.213 20.7213 114.162 20.4131 113.255 19.7966C112.367 19.1802 111.678 18.3099 111.188 17.1857C110.699 16.0616 110.454 14.7289 110.454 13.1878C110.454 11.7372 110.671 10.4499 111.107 9.32577C111.542 8.20162 112.185 7.32225 113.037 6.68765C113.89 6.05306 114.95 5.73576 116.22 5.73576C117.144 5.73576 117.924 5.90801 118.558 6.2525C119.193 6.597 119.71 7.10468 120.109 7.77554C120.526 8.42827 120.852 9.21698 121.088 10.1417H121.713C121.586 9.56148 121.469 8.9994 121.36 8.45546C121.269 7.89339 121.197 7.35851 121.142 6.85084C121.088 6.34316 121.061 5.89894 121.061 5.51818V0.89468H124.977V13.3237V20.3406H121.713V16.2066H121.169C120.97 17.222 120.662 18.0651 120.245 18.7359C119.828 19.4068 119.293 19.9054 118.64 20.2318C118.005 20.5582 117.262 20.7213 116.41 20.7213ZM117.715 17.5121C118.314 17.5121 118.821 17.3852 119.238 17.1313C119.655 16.8775 120 16.5511 120.272 16.1522C120.544 15.7352 120.743 15.291 120.87 14.8196C120.997 14.33 121.061 13.8767 121.061 13.4597V12.943C121.061 12.5985 121.006 12.2449 120.897 11.8823C120.807 11.5015 120.671 11.1298 120.489 10.7672C120.308 10.4046 120.082 10.0873 119.81 9.81531C119.538 9.52521 119.22 9.29857 118.858 9.13539C118.495 8.97221 118.096 8.89061 117.661 8.89061C117.008 8.89061 116.455 9.07193 116.002 9.43456C115.549 9.79718 115.195 10.3049 114.941 10.9576C114.687 11.5922 114.561 12.3356 114.561 13.1878C114.561 14.0581 114.687 14.8196 114.941 15.4723C115.213 16.125 115.585 16.6327 116.056 16.9953C116.528 17.3398 117.081 17.5121 117.715 17.5121Z" fill="#09090B"/>
<path fill-rule="evenodd" clip-rule="evenodd" d="M1.35882 2.81428C0 4.50887 0 7.00591 0 12C0 16.9941 0 19.4911 1.35882 21.1857C1.64143 21.5382 1.96183 21.8586 2.31428 22.1412C4.00887 23.5 6.50591 23.5 11.5 23.5C16.4941 23.5 18.9911 23.5 20.6857 22.1412C21.0382 21.8586 21.3586 21.5382 21.6412 21.1857C23 19.4911 23 16.9941 23 12C23 7.00591 23 4.50887 21.6412 2.81428C21.3586 2.46183 21.0382 2.14143 20.6857 1.85882C18.9911 0.5 16.4941 0.5 11.5 0.5C6.50591 0.5 4.00887 0.5 2.31428 1.85882C1.96183 2.14143 1.64143 2.46183 1.35882 2.81428ZM4.89072 18.6094C7.65612 21.3749 12.8571 20.6575 16.5074 17.0071C20.1578 13.3568 20.8752 8.1558 18.1098 5.3904C15.3444 2.62499 10.1434 3.34238 6.49304 6.99272C2.8427 10.6431 2.12531 15.844 4.89072 18.6094Z" fill="url(#paint0_radial_18627_4982)"/>
<circle cx="13.7568" cy="9.85682" r="2.33222" fill="#00BBA7"/>
<defs>
<radialGradient id="paint0_radial_18627_4982" cx="0" cy="0" r="1" gradientUnits="userSpaceOnUse" gradientTransform="translate(5.31033 5.98244) rotate(70.5397) scale(18.5789 18.5789)">
<stop stop-color="#009689"/>
<stop offset="1" stop-color="#00BBA7"/>
</radialGradient>
</defs>
</svg>
