<svg width="144" height="26" viewBox="0 0 144 26" fill="none" xmlns="http://www.w3.org/2000/svg">
<path d="M27.6581 25.1177V5.48398H30.9501V7.56455H31.0423C31.2969 7.10805 31.6217 6.70423 32.0167 6.35308C32.4206 6.00193 32.8902 5.7254 33.4257 5.52349C33.97 5.32157 34.5801 5.22062 35.2561 5.22062C36.4412 5.22062 37.4815 5.52349 38.3769 6.12922C39.2812 6.72618 39.9878 7.57333 40.497 8.67067C41.015 9.76802 41.2739 11.0585 41.2739 12.5421C41.2739 14.0345 41.0194 15.3338 40.5102 16.4399C40.0098 17.5372 39.3075 18.3888 38.4033 18.9945C37.4991 19.5915 36.4456 19.8899 35.2429 19.8899C34.5757 19.8899 33.9744 19.789 33.4389 19.5871C32.9122 19.3764 32.4513 19.0911 32.0562 18.7311C31.6612 18.3624 31.3364 17.9367 31.0818 17.4538H31.016V25.1177H27.6581ZM34.4133 17.0983C35.1332 17.0983 35.7477 16.9183 36.2569 16.5584C36.7748 16.1897 37.1743 15.6673 37.4552 14.9914C37.7361 14.3066 37.8766 13.4902 37.8766 12.5421C37.8766 11.594 37.7361 10.782 37.4552 10.106C37.1743 9.43004 36.7748 8.91209 36.2569 8.55216C35.7477 8.18345 35.1332 7.9991 34.4133 7.9991C33.6847 7.9991 33.0526 8.18784 32.5171 8.56533C31.9904 8.94282 31.5822 9.46954 31.2925 10.1455C31.0028 10.8215 30.8579 11.6203 30.8579 12.5421C30.8579 13.4551 31.0028 14.254 31.2925 14.9387C31.5822 15.6235 31.9948 16.1546 32.5303 16.5321C33.0658 16.9095 33.6935 17.0983 34.4133 17.0983ZM47.661 19.8636C46.7305 19.8636 45.9009 19.7056 45.1722 19.3895C44.4436 19.0647 43.8686 18.5907 43.4472 17.9674C43.0258 17.3353 42.8151 16.5496 42.8151 15.6103C42.8151 14.8114 42.9644 14.153 43.2629 13.6351C43.5701 13.1083 43.9783 12.6913 44.4875 12.3841C45.0054 12.0681 45.5936 11.831 46.252 11.673C46.9192 11.5062 47.6083 11.3833 48.3194 11.3043C49.1797 11.2077 49.8645 11.1243 50.3737 11.0541C50.8916 10.9839 51.2603 10.8741 51.4798 10.7249C51.708 10.5757 51.8222 10.3386 51.8222 10.0138V9.92165C51.8222 9.50027 51.7212 9.13156 51.5193 8.81552C51.3262 8.49949 51.0365 8.25807 50.6502 8.09127C50.2727 7.9157 49.8162 7.82791 49.2807 7.82791C48.7364 7.82791 48.258 7.9157 47.8454 8.09127C47.4328 8.25807 47.1036 8.49071 46.8578 8.78919C46.612 9.08766 46.4627 9.42565 46.41 9.80313L43.2102 9.61878C43.3331 8.70579 43.6579 7.92448 44.1846 7.27485C44.7201 6.61644 45.4224 6.11166 46.2915 5.76051C47.1694 5.40058 48.1834 5.22062 49.3334 5.22062C50.1761 5.22062 50.9531 5.32596 51.6641 5.53665C52.3752 5.73857 52.9897 6.04143 53.5077 6.44526C54.0344 6.8403 54.4382 7.34069 54.7191 7.94643C55.0088 8.54338 55.1537 9.2369 55.1537 10.027V19.6134H51.888V17.625H51.809C51.5983 18.0464 51.313 18.4283 50.9531 18.7706C50.5931 19.1042 50.141 19.372 49.5967 19.5739C49.0612 19.767 48.416 19.8636 47.661 19.8636ZM48.4906 17.3748C49.2105 17.3748 49.8206 17.2431 50.321 16.9798C50.8214 16.7076 51.1989 16.3521 51.4534 15.9132C51.7168 15.4654 51.8485 14.9694 51.8485 14.4252V12.8581C51.7431 12.9284 51.5807 12.9986 51.3613 13.0688C51.1418 13.1303 50.8828 13.1917 50.5843 13.2532C50.2946 13.3059 49.9874 13.3585 49.6626 13.4112C49.3465 13.4639 49.0349 13.5122 48.7276 13.5561C48.2448 13.6175 47.8015 13.7272 47.3977 13.8853C46.9938 14.0433 46.6734 14.2584 46.4364 14.5305C46.1994 14.8026 46.0808 15.1538 46.0808 15.584C46.0808 15.9614 46.1818 16.2863 46.3837 16.5584C46.5856 16.8218 46.8665 17.0237 47.2265 17.1641C47.5864 17.3046 48.0078 17.3748 48.4906 17.3748ZM61.1194 -0.00713546V19.6134H57.7615V-0.00713546H61.1194ZM63.7272 19.6134V5.48398H66.9402L66.9797 8.65751H66.7295C66.9754 7.8762 67.3177 7.23535 67.7567 6.73496C68.2044 6.22579 68.7223 5.84391 69.3105 5.58933C69.8987 5.33474 70.5132 5.20745 71.154 5.20745C72.2251 5.20745 73.1293 5.52349 73.8667 6.15556C74.6129 6.78763 75.0825 7.63478 75.2757 8.69701H74.8543C75.0474 7.97715 75.3678 7.35825 75.8156 6.8403C76.2721 6.31358 76.8251 5.90975 77.4748 5.62883C78.1244 5.34791 78.8311 5.20745 79.5948 5.20745C80.4727 5.20745 81.2628 5.40058 81.9651 5.78685C82.6762 6.16434 83.2336 6.72618 83.6374 7.47237C84.05 8.21857 84.2563 9.13595 84.2563 10.2245V19.6134H80.8985V10.7117C80.8985 9.79874 80.6483 9.13156 80.1479 8.71018C79.6475 8.28002 79.0418 8.06494 78.3307 8.06494C77.7776 8.06494 77.2992 8.18345 76.8954 8.42048C76.4915 8.65751 76.1755 8.98671 75.9472 9.40809C75.7278 9.82947 75.618 10.3211 75.618 10.8829V19.6134H72.3655V10.5669C72.3655 9.80313 72.1285 9.1974 71.6544 8.74968C71.1892 8.29319 70.5878 8.06494 69.8504 8.06494C69.35 8.06494 68.8891 8.18345 68.4677 8.42048C68.0464 8.64873 67.7084 8.9911 67.4538 9.44759C67.208 9.89531 67.0851 10.4484 67.0851 11.1068V19.6134H63.7272Z" fill="#FAFAFA"/>
<path d="M93.4461 19.6134H89.9122V17.7172H93.3216C94.407 17.7172 95.3072 17.5129 96.0223 17.1043C96.7437 16.6957 97.2832 16.0987 97.6407 15.3134C97.9983 14.5281 98.177 13.5768 98.177 12.4595C98.177 11.3486 97.9983 10.4037 97.6407 9.62475C97.2896 8.84583 96.7629 8.25526 96.0606 7.85303C95.3646 7.44442 94.4931 7.24011 93.4461 7.24011H89.8452V5.3439H93.5802C94.9848 5.3439 96.1883 5.62801 97.1906 6.19624C98.1994 6.76446 98.9719 7.58169 99.5082 8.64791C100.045 9.71413 100.313 10.9847 100.313 12.4595C100.313 13.9407 100.041 15.2176 99.4986 16.2902C98.9623 17.3565 98.1802 18.1769 97.1523 18.7515C96.1308 19.3261 94.8954 19.6134 93.4461 19.6134ZM90.9753 5.3439V19.6134H88.8109V5.3439H90.9753ZM108.377 19.8145C107.132 19.8145 106.021 19.5176 105.044 18.9239C104.067 18.3237 103.298 17.4778 102.736 16.386C102.174 15.2879 101.893 13.9886 101.893 12.4882C101.893 10.9815 102.174 9.67902 102.736 8.58087C103.298 7.48273 104.067 6.63677 105.044 6.04301C106.021 5.44286 107.132 5.14278 108.377 5.14278C109.622 5.14278 110.729 5.44286 111.7 6.04301C112.677 6.63677 113.446 7.48273 114.008 8.58087C114.57 9.67902 114.851 10.9815 114.851 12.4882C114.851 13.9886 114.57 15.2879 114.008 16.386C113.446 17.4842 112.677 18.3301 111.7 18.9239C110.729 19.5176 109.622 19.8145 108.377 19.8145ZM108.377 17.8417C109.188 17.8417 109.919 17.6374 110.57 17.2288C111.221 16.8138 111.735 16.2072 112.112 15.4092C112.495 14.6111 112.686 13.6374 112.686 12.4882C112.686 11.3262 112.495 10.3462 112.112 9.54813C111.735 8.75006 111.221 8.14672 110.57 7.73811C109.919 7.32311 109.188 7.11561 108.377 7.11561C107.56 7.11561 106.825 7.32311 106.174 7.73811C105.523 8.14672 105.006 8.75325 104.623 9.55771C104.24 10.3558 104.048 11.3326 104.048 12.4882C104.048 13.6374 104.24 14.6111 104.623 15.4092C105.006 16.2072 105.523 16.8138 106.174 17.2288C106.825 17.6374 107.56 17.8417 108.377 17.8417ZM122.924 19.8145C121.66 19.8145 120.54 19.5176 119.563 18.9239C118.586 18.3301 117.817 17.4842 117.255 16.386C116.699 15.2879 116.422 13.9886 116.422 12.4882C116.422 10.9815 116.699 9.67902 117.255 8.58087C117.817 7.48273 118.586 6.63677 119.563 6.04301C120.546 5.44286 121.667 5.14278 122.924 5.14278C123.678 5.14278 124.386 5.25451 125.05 5.47797C125.721 5.69505 126.318 6.01428 126.841 6.43566C127.365 6.85704 127.799 7.3678 128.144 7.96795C128.489 8.5681 128.722 9.24806 128.843 10.0078H126.659C126.564 9.54175 126.401 9.12994 126.171 8.77241C125.947 8.41487 125.67 8.11161 125.338 7.86261C125.012 7.61361 124.645 7.42846 124.236 7.30715C123.828 7.17946 123.394 7.11561 122.934 7.11561C122.085 7.11561 121.331 7.3295 120.674 7.75726C120.016 8.17864 119.502 8.79156 119.132 9.59602C118.762 10.3941 118.577 11.3582 118.577 12.4882C118.577 13.6183 118.762 14.5824 119.132 15.3804C119.509 16.1785 120.023 16.7882 120.674 17.2096C121.331 17.631 122.085 17.8417 122.934 17.8417C123.394 17.8417 123.825 17.7778 124.227 17.6501C124.635 17.5225 125.006 17.3373 125.338 17.0947C125.67 16.8521 125.947 16.552 126.171 16.1945C126.401 15.8305 126.564 15.4187 126.659 14.9591H128.843C128.734 15.6805 128.511 16.3381 128.173 16.9319C127.834 17.5256 127.403 18.0396 126.88 18.4738C126.362 18.9015 125.769 19.2335 125.098 19.4698C124.428 19.6996 123.703 19.8145 122.924 19.8145ZM135.7 19.8432C134.609 19.8432 133.664 19.6677 132.866 19.3165C132.067 18.959 131.445 18.4514 130.998 17.7938C130.558 17.1362 130.321 16.3509 130.289 15.4379H132.463C132.495 15.9934 132.652 16.4594 132.933 16.8361C133.22 17.2064 133.603 17.4873 134.082 17.6789C134.561 17.864 135.097 17.9566 135.691 17.9566C136.31 17.9566 136.856 17.864 137.328 17.6789C137.801 17.4873 138.171 17.2192 138.439 16.8744C138.714 16.5233 138.851 16.1179 138.851 15.6582C138.851 15.2623 138.739 14.9303 138.516 14.6622C138.299 14.394 137.989 14.1674 137.587 13.9822C137.185 13.7971 136.703 13.6343 136.141 13.4938L134.503 13.0628C133.245 12.7436 132.288 12.2775 131.63 11.6646C130.979 11.0453 130.653 10.2472 130.653 9.2704C130.653 8.44041 130.87 7.71576 131.305 7.09646C131.745 6.47716 132.345 5.99831 133.105 5.65993C133.871 5.31517 134.743 5.14278 135.719 5.14278C136.709 5.14278 137.577 5.31836 138.324 5.66951C139.071 6.01428 139.656 6.49631 140.077 7.11561C140.505 7.73492 140.728 8.44999 140.747 9.26083H138.64C138.577 8.55214 138.276 8.00307 137.74 7.61361C137.204 7.21777 136.514 7.01984 135.672 7.01984C135.103 7.01984 134.602 7.11242 134.168 7.29757C133.74 7.48273 133.405 7.73492 133.162 8.05414C132.926 8.37337 132.808 8.74049 132.808 9.15548C132.808 9.57048 132.933 9.91525 133.182 10.1898C133.431 10.4579 133.753 10.6782 134.149 10.8506C134.551 11.0166 134.979 11.157 135.432 11.272L136.869 11.6455C137.405 11.7732 137.919 11.9423 138.411 12.153C138.909 12.3637 139.352 12.6255 139.742 12.9383C140.131 13.2512 140.438 13.6311 140.661 14.078C140.891 14.5185 141.006 15.0389 141.006 15.639C141.006 16.4626 140.792 17.1937 140.364 17.8321C139.943 18.4642 139.336 18.959 138.545 19.3165C137.753 19.6677 136.805 19.8432 135.7 19.8432Z" fill="#52525C"/>
<circle cx="11.4104" cy="12.5895" r="11.4104" fill="url(#paint0_radial_17879_10273)"/>
<path fill-rule="evenodd" clip-rule="evenodd" d="M12.5617 6.27258C11.4642 7.22944 10.3328 8.72886 9.83643 10.5522C18.1742 13.3109 18.4505 19.2958 17.3471 22.3404L17.3974 22.369C18.5077 21.2526 19.6277 19.3292 19.7102 16.9566H18.206L19.5861 15.2315C19.3672 14.0047 18.8547 12.694 17.9335 11.3387H16.1505L17.0651 10.1954C15.9814 8.90656 14.5116 7.58822 12.5617 6.27258Z" fill="white"/>
<path fill-rule="evenodd" clip-rule="evenodd" d="M5.30396 13.1418C5.37463 11.8888 5.71281 10.7243 6.14217 9.80664C10.2531 10.5438 12.9828 11.9006 14.7409 13.4991L14.0176 14.4032H15.6147C18.0172 17.2475 17.8341 20.5885 17.0717 22.5748C12.4682 22.1086 9.53726 20.8235 7.75011 19.1944L8.39917 17.8933L6.84802 18.2272C5.79679 16.8894 5.35982 15.4025 5.2981 13.9812L5.96904 13.1413L5.30396 13.1418Z" fill="#5DE317"/>
<defs>
<radialGradient id="paint0_radial_17879_10273" cx="0" cy="0" r="1" gradientUnits="userSpaceOnUse" gradientTransform="translate(12.523 1.17908) rotate(109.62) scale(17.2458 31.0052)">
<stop offset="0.312068" stop-color="#329100"/>
<stop offset="1" stop-color="#5DE317"/>
</radialGradient>
</defs>
</svg>
