<svg width="31" height="28" viewBox="0 0 31 28" fill="none" xmlns="http://www.w3.org/2000/svg">
<path d="M6.58529 21.8283L2.67041 26.7801L4.5007 27.9999L21.9753 1.77976L17.3647 3.07145L15.3071 0.163413L11.8185 9.45642L9.34893 2.46258L7.7176 3.71128L4.45417 0.860163L3.07867 5.22996L0 4.592L4.38553 16.551L0.2149 18.935L6.58529 21.8283Z" fill="#EA580C"/>
<path d="M10.5808 21.9208L7.51719 27.44L5.6869 26.2202L23.1615 0L23.7438 4.75256L27.2198 5.53234L19.9854 12.329L27.3909 11.9165L26.8663 13.9027L30.7538 15.8174L27.2501 18.7688L29.0238 21.3648L16.2982 21.9199L15.703 26.6869L10.5808 21.9208Z" fill="#9A3412"/>
</svg>
