<svg width="36" height="18" viewBox="0 0 36 18" fill="none" xmlns="http://www.w3.org/2000/svg">
<path fill-rule="evenodd" clip-rule="evenodd" d="M4.16153 1.96674C4.33285 2.91987 4.60237 3.90546 5.00323 4.81511C5.89513 6.83906 7.49964 8.59644 10.1886 8.59644V7.45052C8.12976 7.45052 6.84401 6.15064 6.05185 4.35302C5.65173 3.44506 5.39353 2.4382 5.24026 1.47393C6.10671 1.15364 7.04361 0.978699 8.02138 0.978699H10.3359C10.4797 2.21784 10.7816 3.58582 11.3233 4.81511C12.2152 6.83906 13.8197 8.59644 16.5086 8.59644V7.45052C14.4498 7.45052 13.164 6.15064 12.3719 4.35302C11.9026 3.28819 11.6286 2.08735 11.4901 0.978699H16.6563C16.8001 2.21784 17.102 3.58582 17.6437 4.81511C18.5356 6.83906 20.1401 8.59644 22.829 8.59644V7.45052C20.7702 7.45052 19.4845 6.15064 18.6923 4.35302C18.2231 3.28819 17.949 2.08735 17.8105 0.978699H23.7731C27.7456 0.978699 31.2385 3.60772 32.3377 7.42506L35.1012 17.0215C33.0833 14.8232 29.7882 14.3683 27.2502 15.9377L27.065 16.0522C26.0409 16.6855 24.8606 17.0209 23.6565 17.021L17.8105 17.0211C17.9491 15.9125 18.2231 14.7118 18.6923 13.6471C19.4845 11.8495 20.7702 10.5496 22.829 10.5496V9.40367C20.1401 9.40367 18.5356 11.161 17.6437 13.185C17.102 14.4142 16.8002 15.7821 16.6564 17.0211L11.4901 17.0212C11.6286 15.9126 11.9027 14.7119 12.3719 13.6471C13.164 11.8495 14.4498 10.5496 16.5086 10.5496V9.40367C13.8197 9.40367 12.2152 11.161 11.3233 13.185C10.7816 14.4142 10.4797 15.7822 10.3359 17.0213L8.02157 17.0213C7.04374 17.0214 6.10678 16.8464 5.24028 16.5261C5.39354 15.5618 5.65174 14.555 6.05185 13.6471C6.84401 11.8495 8.12976 10.5496 10.1886 10.5496V9.40367C7.49964 9.40367 5.89513 11.161 5.00323 13.185C4.60238 14.0946 4.33286 15.0802 4.16154 16.0333C1.68104 14.6691 6.10352e-05 12.0309 6.10352e-05 9.00001C6.10352e-05 5.96916 1.68103 3.33092 4.16153 1.96674Z" fill="#006AD4"/>
</svg>
