<svg width="114" height="28" viewBox="0 0 114 28" fill="none" xmlns="http://www.w3.org/2000/svg">
<path d="M6.58529 21.8283L2.67041 26.7801L4.5007 27.9999L21.9753 1.77976L17.3647 3.07145L15.3071 0.163413L11.8185 9.45642L9.34893 2.46258L7.7176 3.71128L4.45417 0.860163L3.07867 5.22996L0 4.592L4.38553 16.551L0.2149 18.935L6.58529 21.8283Z" fill="#EA580C"/>
<path d="M10.5808 21.9208L7.51719 27.44L5.6869 26.2202L23.1615 0L23.7438 4.75256L27.2198 5.53234L19.9854 12.329L27.3909 11.9165L26.8663 13.9027L30.7538 15.8174L27.2501 18.7688L29.0238 21.3648L16.2982 21.9199L15.703 26.6869L10.5808 21.9208Z" fill="#9A3412"/>
<path d="M57.039 21.0001H53.3749V6.43956L48.3642 21.0001H45.2265L40.2158 6.43956V21.0001H36.5449V1.40149H41.5283L46.7646 16.297L52.083 1.40149H57.039V21.0001Z" fill="#FAFAFA"/>
<path d="M74.3891 21.0001H71.1147V19.0382C69.8432 20.6651 68.1342 21.4786 65.9878 21.4786C63.9552 21.4786 62.2576 20.7403 60.895 19.2637C59.5324 17.7872 58.8511 15.9301 58.8511 13.6925C58.8511 11.4731 59.5506 9.60687 60.9497 8.09385C62.3488 6.58083 64.0851 5.82433 66.1587 5.82433C68.1365 5.82433 69.7885 6.65603 71.1147 8.31944V6.30284H74.3891V21.0001ZM70.9985 13.6651C70.9985 12.3754 70.6066 11.3204 69.8227 10.5001C69.0389 9.67978 68.0135 9.26963 66.7465 9.26963L66.4389 9.29697C65.2814 9.29697 64.3198 9.72764 63.5542 10.589C62.7886 11.4457 62.4057 12.4893 62.4057 13.7198C62.4057 14.9503 62.825 15.9871 63.6635 16.8302C64.5066 17.6687 65.5434 18.088 66.7739 18.088C67.9679 18.088 68.9751 17.6596 69.7954 16.8028C70.5974 15.9597 70.9985 14.9138 70.9985 13.6651Z" fill="#FAFAFA"/>
<path d="M91.8896 13.6104C91.8896 15.8298 91.1787 17.696 89.7568 19.2091C88.3395 20.7221 86.5667 21.4786 84.4384 21.4786C82.6839 21.4786 81.2187 20.7973 80.0429 19.4346V25.8741H76.4609V6.30284H79.7627V8.17588C80.9385 6.60818 82.5267 5.82433 84.5273 5.82433C86.5963 5.82433 88.3418 6.57172 89.7636 8.06651C91.1809 9.55674 91.8896 11.4047 91.8896 13.6104ZM88.3623 13.6651C88.3623 12.4347 87.9498 11.4002 87.125 10.5616C86.3047 9.71852 85.2884 9.29697 84.0761 9.29697C82.8821 9.29697 81.875 9.71852 81.0547 10.5616C80.2344 11.4002 79.8242 12.4529 79.8242 13.7198C79.8242 14.9138 80.2344 15.9324 81.0547 16.7755C81.875 17.614 82.873 18.0333 84.0488 18.0333C85.2428 18.0333 86.2591 17.614 87.0976 16.7755C87.9407 15.9324 88.3623 14.8956 88.3623 13.6651Z" fill="#FAFAFA"/>
<path d="M96.9556 21.0001H93.3735V1.40149H96.9556V21.0001Z" fill="#FAFAFA"/>
<path d="M113.882 13.5216C113.882 14.0457 113.818 14.6153 113.69 15.2305H102.35C103.001 17.099 104.271 18.0333 106.157 18.0333C107.538 18.0333 108.63 17.6026 109.432 16.7413H113.349C112.998 18.0128 112.12 19.1156 110.717 20.0499C109.299 21.0023 107.807 21.4786 106.239 21.4786C104.111 21.4786 102.29 20.7221 100.777 19.2091C99.2689 17.696 98.5147 15.8663 98.5147 13.7198C98.5147 11.5369 99.278 9.67067 100.805 8.12119C102.318 6.58995 104.147 5.82433 106.294 5.82433C108.368 5.82433 110.149 6.58083 111.64 8.09385C113.134 9.60687 113.882 11.4161 113.882 13.5216ZM110.3 12.0929C109.963 11.1996 109.459 10.5001 108.789 9.99424C108.096 9.51116 107.283 9.26963 106.349 9.26963C105.419 9.26963 104.599 9.51116 103.888 9.99424C103.159 10.5001 102.616 11.1996 102.261 12.0929H110.3Z" fill="#FAFAFA"/>
</svg>
