<svg width="23" height="24" viewBox="0 0 23 24" fill="none" xmlns="http://www.w3.org/2000/svg">
<path d="M22.9471 2.21094C6.60527 0.36849 2.70674 15.3752 0.88031 21.7891C1.60662 21.8709 2.33228 21.9528 3.0573 22.0345C4.19224 18.485 6.23382 16.6925 9.18204 16.6569C13.6013 16.6035 17.2995 13.1589 18.7575 10.0133L17.2461 8.73965C17.6502 8.41744 18.0544 8.09523 18.4584 7.77303C19.6707 6.8064 20.949 5.29557 22.9471 2.21094Z" fill="#F5EDCE"/>
<path d="M19.7344 1.03638C3.28906 1.03638 1.09635 16.3854 0 22.9635C0.730907 22.9635 1.46117 22.9635 2.19078 22.9635C2.92092 19.3092 4.74882 17.2993 7.67448 16.9335C12.0599 16.3854 15.349 12.5481 16.4453 9.25904L14.8008 8.16268C15.1662 7.79723 15.5317 7.43178 15.8971 7.06633C16.9935 5.96997 18.0945 4.32544 19.7344 1.03638Z" fill="#FF5522"/>
</svg>
