<svg width="536" height="200" viewBox="0 0 536 200" fill="none" xmlns="http://www.w3.org/2000/svg">
<g clip-path="url(#clip0_7342_187634)">
<rect width="536" height="200" rx="16" fill="#F5F8FF"/>
<ellipse cx="1.6277" cy="134.41" rx="1.6277" ry="1.62832" fill="#0052FF" fill-opacity="0.1"/>
<ellipse cx="1.6277" cy="20.4252" rx="1.6277" ry="1.62832" fill="#0052FF" fill-opacity="0.1"/>
<ellipse cx="1.6277" cy="157.206" rx="1.6277" ry="1.62832" fill="#0052FF" fill-opacity="0.1"/>
<ellipse cx="1.6277" cy="43.2221" rx="1.6277" ry="1.62832" fill="#0052FF" fill-opacity="0.1"/>
<ellipse cx="1.6277" cy="179.995" rx="1.6277" ry="1.62832" fill="#0052FF" fill-opacity="0.1"/>
<ellipse cx="1.6277" cy="66.0189" rx="1.6277" ry="1.62832" fill="#0052FF" fill-opacity="0.1"/>
<ellipse cx="1.6277" cy="88.8158" rx="1.6277" ry="1.62832" fill="#0052FF" fill-opacity="0.1"/>
<ellipse cx="1.6277" cy="111.613" rx="1.6277" ry="1.62832" fill="#0052FF" fill-opacity="0.1"/>
<ellipse cx="183.93" cy="134.41" rx="1.6277" ry="1.62832" fill="#0052FF" fill-opacity="0.1"/>
<ellipse cx="183.93" cy="20.4252" rx="1.6277" ry="1.62832" fill="#0052FF" fill-opacity="0.1"/>
<ellipse cx="183.93" cy="157.206" rx="1.6277" ry="1.62832" fill="#0052FF" fill-opacity="0.1"/>
<ellipse cx="183.93" cy="43.2221" rx="1.6277" ry="1.62832" fill="#0052FF" fill-opacity="0.1"/>
<ellipse cx="183.93" cy="179.995" rx="1.6277" ry="1.62832" fill="#0052FF" fill-opacity="0.1"/>
<ellipse cx="183.93" cy="66.0189" rx="1.6277" ry="1.62832" fill="#0052FF" fill-opacity="0.1"/>
<ellipse cx="183.93" cy="88.8158" rx="1.6277" ry="1.62832" fill="#0052FF" fill-opacity="0.1"/>
<ellipse cx="183.93" cy="111.613" rx="1.6277" ry="1.62832" fill="#0052FF" fill-opacity="0.1"/>
<ellipse cx="92.7791" cy="134.41" rx="1.6277" ry="1.62832" fill="#0052FF" fill-opacity="0.1"/>
<ellipse cx="92.7791" cy="20.4252" rx="1.6277" ry="1.62832" fill="#0052FF" fill-opacity="0.1"/>
<ellipse cx="92.7791" cy="157.206" rx="1.6277" ry="1.62832" fill="#0052FF" fill-opacity="0.1"/>
<ellipse cx="92.7791" cy="43.2221" rx="1.6277" ry="1.62832" fill="#0052FF" fill-opacity="0.1"/>
<ellipse cx="92.7791" cy="179.995" rx="1.6277" ry="1.62832" fill="#0052FF" fill-opacity="0.1"/>
<ellipse cx="92.7791" cy="66.0189" rx="1.6277" ry="1.62832" fill="#0052FF" fill-opacity="0.1"/>
<ellipse cx="92.7791" cy="88.8158" rx="1.6277" ry="1.62832" fill="#0052FF" fill-opacity="0.1"/>
<ellipse cx="92.7791" cy="111.613" rx="1.6277" ry="1.62832" fill="#0052FF" fill-opacity="0.1"/>
<ellipse cx="275.083" cy="134.41" rx="1.6277" ry="1.62832" fill="#0052FF" fill-opacity="0.1"/>
<ellipse cx="275.083" cy="20.4252" rx="1.6277" ry="1.62832" fill="#0052FF" fill-opacity="0.1"/>
<ellipse cx="275.083" cy="157.206" rx="1.6277" ry="1.62832" fill="#0052FF" fill-opacity="0.1"/>
<ellipse cx="275.083" cy="43.2221" rx="1.6277" ry="1.62832" fill="#0052FF" fill-opacity="0.1"/>
<ellipse cx="275.083" cy="179.995" rx="1.6277" ry="1.62832" fill="#0052FF" fill-opacity="0.1"/>
<ellipse cx="275.083" cy="66.0189" rx="1.6277" ry="1.62832" fill="#0052FF" fill-opacity="0.1"/>
<ellipse cx="275.083" cy="88.8158" rx="1.6277" ry="1.62832" fill="#0052FF" fill-opacity="0.1"/>
<ellipse cx="275.083" cy="111.613" rx="1.6277" ry="1.62832" fill="#0052FF" fill-opacity="0.1"/>
<ellipse cx="47.2029" cy="134.41" rx="1.6277" ry="1.62832" fill="#0052FF" fill-opacity="0.1"/>
<ellipse cx="47.2029" cy="20.4252" rx="1.6277" ry="1.62832" fill="#0052FF" fill-opacity="0.1"/>
<ellipse cx="47.2029" cy="157.206" rx="1.6277" ry="1.62832" fill="#0052FF" fill-opacity="0.1"/>
<ellipse cx="47.2029" cy="43.2221" rx="1.6277" ry="1.62832" fill="#0052FF" fill-opacity="0.1"/>
<ellipse cx="47.2029" cy="179.995" rx="1.6277" ry="1.62832" fill="#0052FF" fill-opacity="0.1"/>
<ellipse cx="47.2029" cy="66.0189" rx="1.6277" ry="1.62832" fill="#0052FF" fill-opacity="0.1"/>
<ellipse cx="47.2029" cy="88.8158" rx="1.6277" ry="1.62832" fill="#0052FF" fill-opacity="0.1"/>
<ellipse cx="47.2029" cy="111.613" rx="1.6277" ry="1.62832" fill="#0052FF" fill-opacity="0.1"/>
<ellipse cx="229.506" cy="134.41" rx="1.6277" ry="1.62832" fill="#0052FF" fill-opacity="0.1"/>
<ellipse cx="229.506" cy="20.4252" rx="1.6277" ry="1.62832" fill="#0052FF" fill-opacity="0.1"/>
<ellipse cx="229.506" cy="157.206" rx="1.6277" ry="1.62832" fill="#0052FF" fill-opacity="0.1"/>
<ellipse cx="229.506" cy="43.2221" rx="1.6277" ry="1.62832" fill="#0052FF" fill-opacity="0.1"/>
<ellipse cx="229.506" cy="179.995" rx="1.6277" ry="1.62832" fill="#0052FF" fill-opacity="0.1"/>
<ellipse cx="229.506" cy="66.0189" rx="1.6277" ry="1.62832" fill="#0052FF" fill-opacity="0.1"/>
<ellipse cx="229.506" cy="88.8158" rx="1.6277" ry="1.62832" fill="#0052FF" fill-opacity="0.1"/>
<ellipse cx="229.506" cy="111.613" rx="1.6277" ry="1.62832" fill="#0052FF" fill-opacity="0.1"/>
<ellipse cx="138.355" cy="134.41" rx="1.6277" ry="1.62832" fill="#0052FF" fill-opacity="0.1"/>
<ellipse cx="138.355" cy="20.4252" rx="1.6277" ry="1.62832" fill="#0052FF" fill-opacity="0.1"/>
<ellipse cx="138.355" cy="157.206" rx="1.6277" ry="1.62832" fill="#0052FF" fill-opacity="0.1"/>
<ellipse cx="138.355" cy="43.2221" rx="1.6277" ry="1.62832" fill="#0052FF" fill-opacity="0.1"/>
<ellipse cx="138.355" cy="179.995" rx="1.6277" ry="1.62832" fill="#0052FF" fill-opacity="0.1"/>
<ellipse cx="138.355" cy="66.0189" rx="1.6277" ry="1.62832" fill="#0052FF" fill-opacity="0.1"/>
<ellipse cx="138.355" cy="88.8158" rx="1.6277" ry="1.62832" fill="#0052FF" fill-opacity="0.1"/>
<ellipse cx="138.355" cy="111.613" rx="1.6277" ry="1.62832" fill="#0052FF" fill-opacity="0.1"/>
<ellipse cx="320.658" cy="134.41" rx="1.6277" ry="1.62832" fill="#0052FF" fill-opacity="0.1"/>
<ellipse cx="320.658" cy="156.98" rx="1.6277" ry="1.62832" fill="#0052FF" fill-opacity="0.1"/>
<ellipse cx="320.658" cy="179.98" rx="1.6277" ry="1.62832" fill="#0052FF" fill-opacity="0.1"/>
<ellipse cx="320.658" cy="20.4252" rx="1.6277" ry="1.62832" fill="#0052FF" fill-opacity="0.1"/>
<ellipse cx="320.658" cy="43.2221" rx="1.6277" ry="1.62832" fill="#0052FF" fill-opacity="0.1"/>
<ellipse cx="320.658" cy="66.0189" rx="1.6277" ry="1.62832" fill="#0052FF" fill-opacity="0.1"/>
<ellipse cx="320.658" cy="88.8158" rx="1.6277" ry="1.62832" fill="#0052FF" fill-opacity="0.1"/>
<ellipse cx="320.658" cy="111.613" rx="1.6277" ry="1.62832" fill="#0052FF" fill-opacity="0.1"/>
<ellipse cx="24.4148" cy="134.41" rx="1.6277" ry="1.62832" fill="#0052FF" fill-opacity="0.1"/>
<ellipse cx="24.4148" cy="20.4252" rx="1.6277" ry="1.62832" fill="#0052FF" fill-opacity="0.1"/>
<ellipse cx="24.4148" cy="157.206" rx="1.6277" ry="1.62832" fill="#0052FF" fill-opacity="0.1"/>
<ellipse cx="24.4148" cy="43.2221" rx="1.6277" ry="1.62832" fill="#0052FF" fill-opacity="0.1"/>
<ellipse cx="24.4148" cy="179.995" rx="1.6277" ry="1.62832" fill="#0052FF" fill-opacity="0.1"/>
<ellipse cx="24.4148" cy="66.0189" rx="1.6277" ry="1.62832" fill="#0052FF" fill-opacity="0.1"/>
<ellipse cx="24.4148" cy="88.8158" rx="1.6277" ry="1.62832" fill="#0052FF" fill-opacity="0.1"/>
<ellipse cx="24.4148" cy="111.613" rx="1.6277" ry="1.62832" fill="#0052FF" fill-opacity="0.1"/>
<ellipse cx="206.719" cy="134.41" rx="1.6277" ry="1.62832" fill="#0052FF" fill-opacity="0.1"/>
<ellipse cx="206.719" cy="20.4252" rx="1.6277" ry="1.62832" fill="#0052FF" fill-opacity="0.1"/>
<ellipse cx="206.719" cy="157.206" rx="1.6277" ry="1.62832" fill="#0052FF" fill-opacity="0.1"/>
<ellipse cx="206.719" cy="43.2221" rx="1.6277" ry="1.62832" fill="#0052FF" fill-opacity="0.1"/>
<ellipse cx="206.719" cy="179.995" rx="1.6277" ry="1.62832" fill="#0052FF" fill-opacity="0.1"/>
<ellipse cx="206.719" cy="66.0189" rx="1.6277" ry="1.62832" fill="#0052FF" fill-opacity="0.1"/>
<ellipse cx="206.719" cy="88.8158" rx="1.6277" ry="1.62832" fill="#0052FF" fill-opacity="0.1"/>
<ellipse cx="206.719" cy="111.613" rx="1.6277" ry="1.62832" fill="#0052FF" fill-opacity="0.1"/>
<ellipse cx="115.566" cy="134.41" rx="1.6277" ry="1.62832" fill="#0052FF" fill-opacity="0.1"/>
<ellipse cx="115.566" cy="20.4252" rx="1.6277" ry="1.62832" fill="#0052FF" fill-opacity="0.1"/>
<ellipse cx="115.566" cy="157.206" rx="1.6277" ry="1.62832" fill="#0052FF" fill-opacity="0.1"/>
<ellipse cx="115.566" cy="43.2221" rx="1.6277" ry="1.62832" fill="#0052FF" fill-opacity="0.1"/>
<ellipse cx="115.566" cy="179.995" rx="1.6277" ry="1.62832" fill="#0052FF" fill-opacity="0.1"/>
<ellipse cx="115.566" cy="66.0189" rx="1.6277" ry="1.62832" fill="#0052FF" fill-opacity="0.1"/>
<ellipse cx="115.566" cy="88.8158" rx="1.6277" ry="1.62832" fill="#0052FF" fill-opacity="0.1"/>
<ellipse cx="115.566" cy="111.613" rx="1.6277" ry="1.62832" fill="#0052FF" fill-opacity="0.1"/>
<ellipse cx="297.87" cy="134.41" rx="1.6277" ry="1.62832" fill="#0052FF" fill-opacity="0.1"/>
<ellipse cx="297.87" cy="20.4252" rx="1.6277" ry="1.62832" fill="#0052FF" fill-opacity="0.1"/>
<ellipse cx="297.87" cy="157.206" rx="1.6277" ry="1.62832" fill="#0052FF" fill-opacity="0.1"/>
<ellipse cx="297.87" cy="43.2221" rx="1.6277" ry="1.62832" fill="#0052FF" fill-opacity="0.1"/>
<ellipse cx="297.87" cy="179.995" rx="1.6277" ry="1.62832" fill="#0052FF" fill-opacity="0.1"/>
<ellipse cx="297.87" cy="66.0189" rx="1.6277" ry="1.62832" fill="#0052FF" fill-opacity="0.1"/>
<ellipse cx="297.87" cy="88.8158" rx="1.6277" ry="1.62832" fill="#0052FF" fill-opacity="0.1"/>
<ellipse cx="297.87" cy="111.613" rx="1.6277" ry="1.62832" fill="#0052FF" fill-opacity="0.1"/>
<ellipse cx="69.992" cy="134.41" rx="1.6277" ry="1.62832" fill="#0052FF" fill-opacity="0.1"/>
<ellipse cx="69.992" cy="20.4252" rx="1.6277" ry="1.62832" fill="#0052FF" fill-opacity="0.1"/>
<ellipse cx="69.992" cy="157.206" rx="1.6277" ry="1.62832" fill="#0052FF" fill-opacity="0.1"/>
<ellipse cx="69.992" cy="43.2221" rx="1.6277" ry="1.62832" fill="#0052FF" fill-opacity="0.1"/>
<ellipse cx="69.992" cy="179.995" rx="1.6277" ry="1.62832" fill="#0052FF" fill-opacity="0.1"/>
<ellipse cx="69.992" cy="66.0189" rx="1.6277" ry="1.62832" fill="#0052FF" fill-opacity="0.1"/>
<ellipse cx="69.992" cy="88.8158" rx="1.6277" ry="1.62832" fill="#0052FF" fill-opacity="0.1"/>
<ellipse cx="69.992" cy="111.613" rx="1.6277" ry="1.62832" fill="#0052FF" fill-opacity="0.1"/>
<ellipse cx="252.295" cy="134.41" rx="1.6277" ry="1.62832" fill="#0052FF" fill-opacity="0.1"/>
<ellipse cx="252.295" cy="20.4252" rx="1.6277" ry="1.62832" fill="#0052FF" fill-opacity="0.1"/>
<ellipse cx="252.295" cy="157.206" rx="1.6277" ry="1.62832" fill="#0052FF" fill-opacity="0.1"/>
<ellipse cx="252.295" cy="43.2221" rx="1.6277" ry="1.62832" fill="#0052FF" fill-opacity="0.1"/>
<ellipse cx="252.295" cy="179.995" rx="1.6277" ry="1.62832" fill="#0052FF" fill-opacity="0.1"/>
<ellipse cx="252.295" cy="66.0189" rx="1.6277" ry="1.62832" fill="#0052FF" fill-opacity="0.1"/>
<ellipse cx="252.295" cy="88.8158" rx="1.6277" ry="1.62832" fill="#0052FF" fill-opacity="0.1"/>
<ellipse cx="252.295" cy="111.613" rx="1.6277" ry="1.62832" fill="#0052FF" fill-opacity="0.1"/>
<ellipse cx="161.143" cy="134.41" rx="1.6277" ry="1.62832" fill="#0052FF" fill-opacity="0.1"/>
<ellipse cx="161.143" cy="20.4252" rx="1.6277" ry="1.62832" fill="#0052FF" fill-opacity="0.1"/>
<ellipse cx="161.143" cy="157.206" rx="1.6277" ry="1.62832" fill="#0052FF" fill-opacity="0.1"/>
<ellipse cx="161.143" cy="43.2221" rx="1.6277" ry="1.62832" fill="#0052FF" fill-opacity="0.1"/>
<ellipse cx="161.143" cy="179.995" rx="1.6277" ry="1.62832" fill="#0052FF" fill-opacity="0.1"/>
<ellipse cx="161.143" cy="66.0189" rx="1.6277" ry="1.62832" fill="#0052FF" fill-opacity="0.1"/>
<ellipse cx="161.143" cy="88.8158" rx="1.6277" ry="1.62832" fill="#0052FF" fill-opacity="0.1"/>
<ellipse cx="161.143" cy="111.613" rx="1.6277" ry="1.62832" fill="#0052FF" fill-opacity="0.1"/>
<ellipse cx="343.446" cy="134.41" rx="1.6277" ry="1.62832" fill="#0052FF" fill-opacity="0.1"/>
<ellipse cx="343.446" cy="156.98" rx="1.6277" ry="1.62832" fill="#0052FF" fill-opacity="0.1"/>
<ellipse cx="343.446" cy="179.98" rx="1.6277" ry="1.62832" fill="#0052FF" fill-opacity="0.1"/>
<ellipse cx="343.446" cy="20.4252" rx="1.6277" ry="1.62832" fill="#0052FF" fill-opacity="0.1"/>
<ellipse cx="343.446" cy="43.2221" rx="1.6277" ry="1.62832" fill="#0052FF" fill-opacity="0.1"/>
<ellipse cx="343.446" cy="66.0189" rx="1.6277" ry="1.62832" fill="#0052FF" fill-opacity="0.1"/>
<ellipse cx="343.446" cy="88.8158" rx="1.6277" ry="1.62832" fill="#0052FF" fill-opacity="0.1"/>
<ellipse cx="343.446" cy="111.613" rx="1.6277" ry="1.62832" fill="#0052FF" fill-opacity="0.1"/>
<ellipse cx="366.233" cy="134.41" rx="1.6277" ry="1.62832" fill="#0052FF" fill-opacity="0.1"/>
<ellipse cx="366.233" cy="156.98" rx="1.6277" ry="1.62832" fill="#0052FF" fill-opacity="0.1"/>
<ellipse cx="366.233" cy="179.98" rx="1.6277" ry="1.62832" fill="#0052FF" fill-opacity="0.1"/>
<ellipse cx="366.233" cy="20.4252" rx="1.6277" ry="1.62832" fill="#0052FF" fill-opacity="0.1"/>
<ellipse cx="366.233" cy="43.2221" rx="1.6277" ry="1.62832" fill="#0052FF" fill-opacity="0.1"/>
<ellipse cx="366.233" cy="66.0189" rx="1.6277" ry="1.62832" fill="#0052FF" fill-opacity="0.1"/>
<ellipse cx="366.233" cy="88.8158" rx="1.6277" ry="1.62832" fill="#0052FF" fill-opacity="0.1"/>
<ellipse cx="366.233" cy="111.613" rx="1.6277" ry="1.62832" fill="#0052FF" fill-opacity="0.1"/>
<ellipse cx="457.386" cy="134.41" rx="1.6277" ry="1.62832" fill="#0052FF" fill-opacity="0.1"/>
<ellipse cx="457.386" cy="156.98" rx="1.6277" ry="1.62832" fill="#0052FF" fill-opacity="0.1"/>
<ellipse cx="457.386" cy="179.98" rx="1.6277" ry="1.62832" fill="#0052FF" fill-opacity="0.1"/>
<ellipse cx="457.386" cy="20.4252" rx="1.6277" ry="1.62832" fill="#0052FF" fill-opacity="0.1"/>
<ellipse cx="457.386" cy="43.2221" rx="1.6277" ry="1.62832" fill="#0052FF" fill-opacity="0.1"/>
<ellipse cx="457.386" cy="66.0189" rx="1.6277" ry="1.62832" fill="#0052FF" fill-opacity="0.1"/>
<ellipse cx="457.386" cy="88.8158" rx="1.6277" ry="1.62832" fill="#0052FF" fill-opacity="0.1"/>
<ellipse cx="457.386" cy="111.613" rx="1.6277" ry="1.62832" fill="#0052FF" fill-opacity="0.1"/>
<ellipse cx="411.809" cy="134.41" rx="1.6277" ry="1.62832" fill="#0052FF" fill-opacity="0.1"/>
<ellipse cx="411.809" cy="156.98" rx="1.6277" ry="1.62832" fill="#0052FF" fill-opacity="0.1"/>
<ellipse cx="411.809" cy="179.98" rx="1.6277" ry="1.62832" fill="#0052FF" fill-opacity="0.1"/>
<ellipse cx="411.809" cy="20.4252" rx="1.6277" ry="1.62832" fill="#0052FF" fill-opacity="0.1"/>
<ellipse cx="411.809" cy="43.2221" rx="1.6277" ry="1.62832" fill="#0052FF" fill-opacity="0.1"/>
<ellipse cx="411.809" cy="66.0189" rx="1.6277" ry="1.62832" fill="#0052FF" fill-opacity="0.1"/>
<ellipse cx="411.809" cy="88.8158" rx="1.6277" ry="1.62832" fill="#0052FF" fill-opacity="0.1"/>
<ellipse cx="411.809" cy="111.613" rx="1.6277" ry="1.62832" fill="#0052FF" fill-opacity="0.1"/>
<ellipse cx="502.961" cy="134.41" rx="1.6277" ry="1.62832" fill="#0052FF" fill-opacity="0.1"/>
<ellipse cx="502.961" cy="20.4252" rx="1.6277" ry="1.62832" fill="#0052FF" fill-opacity="0.1"/>
<ellipse cx="502.961" cy="157.206" rx="1.6277" ry="1.62832" fill="#0052FF" fill-opacity="0.1"/>
<ellipse cx="502.961" cy="43.2221" rx="1.6277" ry="1.62832" fill="#0052FF" fill-opacity="0.1"/>
<ellipse cx="502.961" cy="179.995" rx="1.6277" ry="1.62832" fill="#0052FF" fill-opacity="0.1"/>
<ellipse cx="502.961" cy="66.0189" rx="1.6277" ry="1.62832" fill="#0052FF" fill-opacity="0.1"/>
<ellipse cx="502.961" cy="88.8158" rx="1.6277" ry="1.62832" fill="#0052FF" fill-opacity="0.1"/>
<ellipse cx="502.961" cy="111.613" rx="1.6277" ry="1.62832" fill="#0052FF" fill-opacity="0.1"/>
<ellipse cx="389.021" cy="134.41" rx="1.6277" ry="1.62832" fill="#0052FF" fill-opacity="0.1"/>
<ellipse cx="389.021" cy="156.98" rx="1.6277" ry="1.62832" fill="#0052FF" fill-opacity="0.1"/>
<ellipse cx="389.021" cy="179.98" rx="1.6277" ry="1.62832" fill="#0052FF" fill-opacity="0.1"/>
<ellipse cx="389.021" cy="20.4252" rx="1.6277" ry="1.62832" fill="#0052FF" fill-opacity="0.1"/>
<ellipse cx="389.021" cy="43.2221" rx="1.6277" ry="1.62832" fill="#0052FF" fill-opacity="0.1"/>
<ellipse cx="389.021" cy="66.0189" rx="1.6277" ry="1.62832" fill="#0052FF" fill-opacity="0.1"/>
<ellipse cx="389.021" cy="88.8158" rx="1.6277" ry="1.62832" fill="#0052FF" fill-opacity="0.1"/>
<ellipse cx="389.021" cy="111.613" rx="1.6277" ry="1.62832" fill="#0052FF" fill-opacity="0.1"/>
<ellipse cx="480.173" cy="134.41" rx="1.6277" ry="1.62832" fill="#0052FF" fill-opacity="0.1"/>
<ellipse cx="480.173" cy="20.4252" rx="1.6277" ry="1.62832" fill="#0052FF" fill-opacity="0.1"/>
<ellipse cx="480.173" cy="157.206" rx="1.6277" ry="1.62832" fill="#0052FF" fill-opacity="0.1"/>
<ellipse cx="480.173" cy="43.2221" rx="1.6277" ry="1.62832" fill="#0052FF" fill-opacity="0.1"/>
<ellipse cx="480.173" cy="179.995" rx="1.6277" ry="1.62832" fill="#0052FF" fill-opacity="0.1"/>
<ellipse cx="480.173" cy="66.0189" rx="1.6277" ry="1.62832" fill="#0052FF" fill-opacity="0.1"/>
<ellipse cx="480.173" cy="88.8158" rx="1.6277" ry="1.62832" fill="#0052FF" fill-opacity="0.1"/>
<ellipse cx="480.173" cy="111.613" rx="1.6277" ry="1.62832" fill="#0052FF" fill-opacity="0.1"/>
<ellipse cx="434.597" cy="134.41" rx="1.6277" ry="1.62832" fill="#0052FF" fill-opacity="0.1"/>
<ellipse cx="434.597" cy="156.98" rx="1.6277" ry="1.62832" fill="#0052FF" fill-opacity="0.1"/>
<ellipse cx="434.597" cy="179.98" rx="1.6277" ry="1.62832" fill="#0052FF" fill-opacity="0.1"/>
<ellipse cx="434.597" cy="20.4252" rx="1.6277" ry="1.62832" fill="#0052FF" fill-opacity="0.1"/>
<ellipse cx="434.597" cy="43.2221" rx="1.6277" ry="1.62832" fill="#0052FF" fill-opacity="0.1"/>
<ellipse cx="434.597" cy="66.0189" rx="1.6277" ry="1.62832" fill="#0052FF" fill-opacity="0.1"/>
<ellipse cx="434.597" cy="88.8158" rx="1.6277" ry="1.62832" fill="#0052FF" fill-opacity="0.1"/>
<ellipse cx="434.597" cy="111.613" rx="1.6277" ry="1.62832" fill="#0052FF" fill-opacity="0.1"/>
<ellipse cx="525.749" cy="134.41" rx="1.6277" ry="1.62832" fill="#0052FF" fill-opacity="0.1"/>
<ellipse cx="525.749" cy="20.4252" rx="1.6277" ry="1.62832" fill="#0052FF" fill-opacity="0.1"/>
<ellipse cx="525.749" cy="157.206" rx="1.6277" ry="1.62832" fill="#0052FF" fill-opacity="0.1"/>
<ellipse cx="525.749" cy="43.2221" rx="1.6277" ry="1.62832" fill="#0052FF" fill-opacity="0.1"/>
<ellipse cx="525.749" cy="179.995" rx="1.6277" ry="1.62832" fill="#0052FF" fill-opacity="0.1"/>
<ellipse cx="525.749" cy="66.0189" rx="1.6277" ry="1.62832" fill="#0052FF" fill-opacity="0.1"/>
<ellipse cx="525.749" cy="88.8158" rx="1.6277" ry="1.62832" fill="#0052FF" fill-opacity="0.1"/>
<ellipse cx="525.749" cy="111.613" rx="1.6277" ry="1.62832" fill="#0052FF" fill-opacity="0.1"/>
<path d="M224.032 121.5C219.327 121.5 215.516 117.696 215.516 113C215.516 108.304 219.327 104.5 224.032 104.5C228.247 104.5 231.746 107.567 232.42 111.583H241C240.276 102.857 232.959 96 224.032 96C214.629 96 207 103.615 207 113C207 122.385 214.629 130 224.032 130C232.959 130 240.276 123.143 241 114.417H232.42C231.746 118.433 228.247 121.5 224.032 121.5Z" fill="#0052FF"/>
<g clip-path="url(#clip1_7342_187634)">
<path d="M300 38.1896C300 30.3529 306.353 24 314.19 24H585.81C593.647 24 600 30.3529 600 38.1896V177.81C600 185.647 593.647 192 585.81 192H314.19C306.353 192 300 185.647 300 177.81V38.1896Z" fill="white"/>
<circle cx="318.661" cy="38.6605" r="2.66055" fill="#FF796F"/>
<circle cx="318.661" cy="38.6605" r="2.43884" stroke="black" stroke-opacity="0.16" stroke-width="0.443425"/>
<circle cx="327.982" cy="38.6605" r="2.66055" fill="#FFD171"/>
<circle cx="327.982" cy="38.6605" r="2.43884" stroke="black" stroke-opacity="0.16" stroke-width="0.443425"/>
<circle cx="337.303" cy="38.6605" r="2.66055" fill="#64C255"/>
<circle cx="337.303" cy="38.6605" r="2.43884" stroke="black" stroke-opacity="0.16" stroke-width="0.443425"/>
<rect x="316" y="61.3203" width="178" height="49" rx="8" fill="#EEF0F3"/>
<rect x="316" y="118.32" width="178" height="8" rx="4" fill="#EEF0F3"/>
<rect x="316" y="134.32" width="178" height="8" rx="4" fill="#EEF0F3"/>
</g>
<path d="M314.19 23.5566C306.108 23.5566 299.557 30.108 299.557 38.1896V177.81C299.557 185.892 306.108 192.443 314.19 192.443H585.81C593.892 192.443 600.443 185.892 600.443 177.81V38.1896C600.443 30.108 593.892 23.5566 585.81 23.5566H314.19Z" stroke="#EEF0F3" stroke-width="0.88685"/>
<g filter="url(#filter0_d_7342_187634)">
<path d="M430.19 77.5C422.077 77.5 415.5 84.0768 415.5 92.1896V219.81C415.5 227.923 422.077 234.5 430.19 234.5H486.81C494.923 234.5 501.5 227.923 501.5 219.81V92.1896C501.5 84.0768 494.923 77.5 486.81 77.5H430.19Z" fill="white"/>
<path d="M430.19 77.5C422.077 77.5 415.5 84.0768 415.5 92.1896V219.81C415.5 227.923 422.077 234.5 430.19 234.5H486.81C494.923 234.5 501.5 227.923 501.5 219.81V92.1896C501.5 84.0768 494.923 77.5 486.81 77.5H430.19Z" stroke="#EEF0F3"/>
<rect x="436.5" y="86" width="33" height="5" rx="2.5" fill="#DEE1E7"/>
<circle cx="478" cy="88.5" r="2.5" fill="#DEE1E7"/>
<rect x="420" y="99" width="77" height="45" rx="8" fill="#EEF0F3"/>
<rect x="420" y="152" width="77" height="8" rx="4" fill="#EEF0F3"/>
<rect x="420" y="168" width="77" height="8" rx="4" fill="#EEF0F3"/>
</g>
<rect x="40" y="15" width="98" height="32" rx="16" fill="white"/>
<rect x="40.5" y="15.5" width="97" height="31" rx="15.5" stroke="#5B616E" stroke-opacity="0.2"/>
<path d="M62 28H54C53.45 28 53 27.55 53 27C53 26.45 53.45 26 54 26H62V28Z" fill="#73A2FF"/>
<path d="M53 34.5V29H63V36H54.5C53.67 36 53 35.33 53 34.5ZM60.25 32.5C60.25 32.91 60.59 33.25 61 33.25C61.41 33.25 61.75 32.91 61.75 32.5C61.75 32.09 61.41 31.75 61 31.75C60.59 31.75 60.25 32.09 60.25 32.5Z" fill="#73A2FF"/>
<path d="M72.5068 27.552H73.5628L74.3068 34.644H74.3908L75.4348 29.556H76.5988L77.7028 34.668H77.7868L78.4588 27.552H79.4428L78.5908 36H77.1988L76.0348 30.792H75.9628L74.8468 36H73.4548L72.5068 27.552ZM84.8265 31.332C84.8265 30.816 84.4905 30.3 83.5065 30.3C82.6185 30.3 82.1385 30.648 82.0785 31.236H80.9865C81.0825 30.192 81.9705 29.448 83.5185 29.448C84.9465 29.448 85.9545 30.12 85.9545 31.596V34.632C85.9545 35.016 86.0985 35.112 86.4105 35.112H86.8545V36H86.0865C85.2945 36 85.0185 35.628 85.0185 34.932L85.0425 34.836H84.9705C84.6825 35.664 83.9145 36.168 82.8825 36.168C81.6465 36.168 80.7585 35.472 80.7585 34.284C80.7585 33.12 81.6225 32.52 82.9305 32.316L83.8665 32.16C84.5025 32.052 84.8265 31.836 84.8265 31.332ZM84.8625 33.42V32.484C84.7425 32.652 84.4665 32.844 84.0345 32.916L83.1225 33.072C82.3305 33.204 81.8385 33.552 81.8385 34.176V34.248C81.8385 34.92 82.3425 35.304 83.0865 35.304C84.1305 35.304 84.8625 34.548 84.8625 33.42ZM90.1503 34.524V27.912H88.4943V27H91.2543V34.38C91.2543 34.86 91.4583 35.064 91.9263 35.064H94.4703V36H91.6743C90.6183 36 90.1503 35.508 90.1503 34.524ZM97.8261 34.524V27.912H96.1701V27H98.9301V34.38C98.9301 34.86 99.1341 35.064 99.6021 35.064H102.146V36H99.3501C98.2941 36 97.8261 35.508 97.8261 34.524ZM106.762 36.168C104.77 36.168 103.738 34.692 103.738 32.808C103.738 30.912 104.842 29.448 106.726 29.448C108.622 29.448 109.618 30.852 109.618 32.664V33.048H104.842V33.096C104.842 34.452 105.622 35.304 106.774 35.304C107.782 35.304 108.298 34.788 108.382 34.296H109.51C109.282 35.4 108.286 36.168 106.762 36.168ZM106.726 30.324C105.706 30.324 104.938 31.044 104.854 32.28H108.514C108.478 31.02 107.794 30.324 106.726 30.324ZM111.21 29.616H113.178V27.936H114.282V29.616H117.15V30.54H114.282V34.44C114.282 34.884 114.462 35.076 114.906 35.076H117.15V36H114.702C113.658 36 113.178 35.508 113.178 34.524V30.54H111.21V29.616ZM119.257 34.272H120.385C120.397 34.992 121.117 35.328 122.089 35.328C123.049 35.328 123.685 34.968 123.685 34.284C123.685 33.696 123.193 33.408 122.401 33.3L121.309 33.144C120.193 33 119.437 32.448 119.437 31.368C119.437 30.156 120.529 29.436 122.053 29.436C123.709 29.436 124.657 30.264 124.657 31.236H123.541C123.529 30.66 122.977 30.288 122.029 30.288C121.117 30.288 120.553 30.66 120.553 31.284C120.553 31.812 120.937 32.112 121.681 32.22L122.761 32.364C124.021 32.544 124.801 33.12 124.801 34.188C124.801 35.472 123.661 36.18 122.065 36.18C120.361 36.18 119.269 35.424 119.257 34.272Z" fill="black"/>
<rect x="63" y="69" width="75" height="32" rx="16" fill="white"/>
<rect x="63.5" y="69.5" width="74" height="31" rx="15.5" stroke="#5B616E" stroke-opacity="0.2"/>
<path d="M78 87H75V91H78V87Z" fill="#5B616E"/>
<path d="M82.5 83H79.5V91H82.5V83Z" fill="#5B616E"/>
<path d="M87 79H84V91H87V79Z" fill="#5B616E"/>
<path d="M98.5564 81.552C101.004 81.552 102.24 83.46 102.24 85.776C102.24 88.104 101.004 90 98.5564 90H96.0364V81.552H98.5564ZM98.5684 82.548H97.1884V89.004H98.5684C99.9364 89.004 101.064 87.948 101.064 86.04V85.512C101.064 83.604 99.9364 82.548 98.5684 82.548ZM107.84 85.332C107.84 84.816 107.504 84.3 106.52 84.3C105.632 84.3 105.152 84.648 105.092 85.236H104C104.096 84.192 104.984 83.448 106.532 83.448C107.96 83.448 108.968 84.12 108.968 85.596V88.632C108.968 89.016 109.112 89.112 109.424 89.112H109.868V90H109.1C108.308 90 108.032 89.628 108.032 88.932L108.056 88.836H107.984C107.696 89.664 106.928 90.168 105.896 90.168C104.66 90.168 103.772 89.472 103.772 88.284C103.772 87.12 104.636 86.52 105.944 86.316L106.88 86.16C107.516 86.052 107.84 85.836 107.84 85.332ZM107.876 87.42V86.484C107.756 86.652 107.48 86.844 107.048 86.916L106.136 87.072C105.344 87.204 104.852 87.552 104.852 88.176V88.248C104.852 88.92 105.356 89.304 106.1 89.304C107.144 89.304 107.876 88.548 107.876 87.42ZM111.196 83.616H113.164V81.936H114.268V83.616H117.136V84.54H114.268V88.44C114.268 88.884 114.448 89.076 114.892 89.076H117.136V90H114.688C113.644 90 113.164 89.508 113.164 88.524V84.54H111.196V83.616ZM123.192 85.332C123.192 84.816 122.856 84.3 121.872 84.3C120.984 84.3 120.504 84.648 120.444 85.236H119.352C119.448 84.192 120.336 83.448 121.884 83.448C123.312 83.448 124.32 84.12 124.32 85.596V88.632C124.32 89.016 124.464 89.112 124.776 89.112H125.22V90H124.452C123.66 90 123.384 89.628 123.384 88.932L123.408 88.836H123.336C123.048 89.664 122.28 90.168 121.248 90.168C120.012 90.168 119.124 89.472 119.124 88.284C119.124 87.12 119.988 86.52 121.296 86.316L122.232 86.16C122.868 86.052 123.192 85.836 123.192 85.332ZM123.228 87.42V86.484C123.108 86.652 122.832 86.844 122.4 86.916L121.488 87.072C120.696 87.204 120.204 87.552 120.204 88.176V88.248C120.204 88.92 120.708 89.304 121.452 89.304C122.496 89.304 123.228 88.548 123.228 87.42Z" fill="black"/>
<rect x="40" y="123" width="98" height="32" rx="16" fill="white"/>
<rect x="40.5" y="123.5" width="97" height="31" rx="15.5" stroke="#5B616E" stroke-opacity="0.2"/>
<path d="M58.8223 135.506C59.2906 135.506 59.7549 135.592 60.192 135.76L57.0713 137.74L55.937 138.462L55.0934 137.193L56.7452 136.121C57.3638 135.719 58.0853 135.506 58.8223 135.506ZM58.8223 134.003C57.7964 134.002 56.792 134.298 55.93 134.856L53 136.75L55.4996 140.5L57.8745 139L60.7045 143.449C60.8854 143.719 61.1646 143.907 61.4823 143.974C61.8 144.04 62.131 143.979 62.4046 143.805C62.6782 143.63 62.8727 143.354 62.9464 143.037C63.0202 142.721 62.9674 142.388 62.7994 142.109L60 137.672L63 135.754L61.8749 134.964C60.9801 134.337 59.9144 134 58.8223 134V134.003Z" fill="#ED702F"/>
<path d="M76.0228 144.168C74.0188 144.168 72.8548 143.1 72.8068 141.612H73.9588C74.0188 142.656 74.7868 143.244 76.0348 143.244C77.2348 143.244 77.9908 142.62 77.9908 141.684C77.9908 140.856 77.4628 140.496 76.4908 140.34L75.3268 140.148C73.9828 139.932 73.0228 139.272 73.0228 137.82C73.0228 136.464 74.0908 135.372 76.0228 135.372C77.9908 135.372 78.9628 136.476 79.0228 137.736H77.8708C77.8108 136.896 77.2108 136.296 76.0108 136.296C74.7988 136.296 74.1748 136.932 74.1748 137.748C74.1748 138.588 74.7388 138.948 75.6388 139.092L76.7788 139.284C78.1828 139.512 79.1548 140.16 79.1548 141.624C79.1548 143.16 77.8948 144.168 76.0228 144.168ZM80.5065 137.616H82.4745V135.936H83.5785V137.616H86.4465V138.54H83.5785V142.44C83.5785 142.884 83.7585 143.076 84.2025 143.076H86.4465V144H83.9985C82.9545 144 82.4745 143.508 82.4745 142.524V138.54H80.5065V137.616ZM92.5023 139.332C92.5023 138.816 92.1663 138.3 91.1823 138.3C90.2943 138.3 89.8143 138.648 89.7543 139.236H88.6623C88.7583 138.192 89.6463 137.448 91.1943 137.448C92.6223 137.448 93.6303 138.12 93.6303 139.596V142.632C93.6303 143.016 93.7743 143.112 94.0863 143.112H94.5303V144H93.7623C92.9703 144 92.6943 143.628 92.6943 142.932L92.7183 142.836H92.6463C92.3583 143.664 91.5903 144.168 90.5583 144.168C89.3223 144.168 88.4343 143.472 88.4343 142.284C88.4343 141.12 89.2983 140.52 90.6063 140.316L91.5423 140.16C92.1783 140.052 92.5023 139.836 92.5023 139.332ZM92.5383 141.42V140.484C92.4183 140.652 92.1423 140.844 91.7103 140.916L90.7983 141.072C90.0063 141.204 89.5143 141.552 89.5143 142.176V142.248C89.5143 142.92 90.0183 143.304 90.7623 143.304C91.8063 143.304 92.5383 142.548 92.5383 141.42ZM97.6581 135V144H96.5541V135H97.6581ZM102.098 137.616L98.9781 140.532L102.326 144H100.91L97.6581 140.58L100.73 137.616H102.098ZM106.834 136.416H106.762C106.318 136.416 105.994 136.092 105.994 135.684C105.994 135.264 106.318 134.94 106.762 134.94H106.834C107.254 134.94 107.59 135.264 107.59 135.684C107.59 136.092 107.254 136.416 106.834 136.416ZM103.918 144V143.076H106.246V138.54H104.194V137.616H107.35V143.076H109.69V144H103.918ZM112.782 140.232V144H111.678V137.616H112.71V138.792H112.77C113.07 137.904 113.814 137.448 114.75 137.448C116.034 137.448 117.066 138.312 117.066 139.932V144H115.962V140.04C115.962 138.948 115.254 138.408 114.438 138.408C113.562 138.408 112.782 138.996 112.782 140.232ZM119.137 144.576H120.253C120.337 145.068 120.793 145.584 121.861 145.584C123.133 145.584 123.721 144.864 123.721 143.592V142.488H123.673C123.337 143.292 122.701 143.796 121.645 143.796C119.941 143.796 118.945 142.404 118.945 140.604C118.945 138.84 119.905 137.448 121.645 137.448C122.761 137.448 123.433 137.976 123.733 138.816H123.793V137.616H124.825V143.532C124.825 145.428 123.745 146.484 121.861 146.484C120.193 146.484 119.281 145.62 119.137 144.576ZM120.049 140.46V140.784C120.049 142.092 120.853 142.86 121.885 142.86C122.917 142.86 123.721 142.068 123.721 140.784V140.46C123.721 139.2 122.917 138.384 121.885 138.384C120.853 138.384 120.049 139.14 120.049 140.46Z" fill="black"/>
<rect x="47" y="177" width="91" height="32" rx="16" fill="white"/>
<rect x="47.5" y="177.5" width="90" height="31" rx="15.5" stroke="#5B616E" stroke-opacity="0.2"/>
<path d="M64.5 187H65.5V188.5H66V194.5H65.5V196H64.5V194.5H64V188.5H64.5V187Z" fill="#00D17F"/>
<path d="M60.5 191.5H60V197.5H60.5V199H61.5V197.5H62V191.5H61.5V190H60.5V191.5Z" fill="#00D17F"/>
<path d="M69.5 191.5H70V197.5H69.5V199H68.5V197.5H68V191.5H68.5V190H69.5V191.5Z" fill="#00D17F"/>
<path d="M82.7367 190.548H79.9767V189.552H86.6487V190.548H83.8887V198H82.7367V190.548ZM88.9124 198V191.616H89.9684V192.744H90.0284C90.1964 192.156 90.7004 191.58 91.7684 191.58H93.6884V192.612H91.5644C90.3644 192.612 90.0164 193.332 90.0164 194.256V198H88.9124ZM99.8402 193.332C99.8402 192.816 99.5042 192.3 98.5202 192.3C97.6322 192.3 97.1522 192.648 97.0922 193.236H96.0002C96.0962 192.192 96.9842 191.448 98.5322 191.448C99.9602 191.448 100.968 192.12 100.968 193.596V196.632C100.968 197.016 101.112 197.112 101.424 197.112H101.868V198H101.1C100.308 198 100.032 197.628 100.032 196.932L100.056 196.836H99.9842C99.6962 197.664 98.9282 198.168 97.8962 198.168C96.6602 198.168 95.7722 197.472 95.7722 196.284C95.7722 195.12 96.6362 194.52 97.9442 194.316L98.8802 194.16C99.5162 194.052 99.8402 193.836 99.8402 193.332ZM99.8762 195.42V194.484C99.7562 194.652 99.4802 194.844 99.0482 194.916L98.1362 195.072C97.3442 195.204 96.8522 195.552 96.8522 196.176V196.248C96.8522 196.92 97.3562 197.304 98.1002 197.304C99.1442 197.304 99.8762 196.548 99.8762 195.42ZM109.172 198H108.128V196.692H108.068C107.756 197.58 107.072 198.168 105.968 198.168C104.204 198.168 103.244 196.704 103.244 194.808C103.244 192.912 104.228 191.448 105.968 191.448C107.012 191.448 107.66 191.988 108.008 192.84H108.068V189H109.172V198ZM104.348 195.048C104.348 196.428 105.152 197.232 106.208 197.232C107.276 197.232 108.068 196.392 108.068 195.048V194.58C108.068 193.224 107.276 192.396 106.208 192.396C105.152 192.396 104.348 193.2 104.348 194.58V195.048ZM114.1 198.168C112.108 198.168 111.076 196.692 111.076 194.808C111.076 192.912 112.18 191.448 114.064 191.448C115.96 191.448 116.956 192.852 116.956 194.664V195.048H112.18V195.096C112.18 196.452 112.96 197.304 114.112 197.304C115.12 197.304 115.636 196.788 115.72 196.296H116.848C116.62 197.4 115.624 198.168 114.1 198.168ZM114.064 192.324C113.044 192.324 112.276 193.044 112.192 194.28H115.852C115.816 193.02 115.132 192.324 114.064 192.324ZM118.92 196.272H120.048C120.06 196.992 120.78 197.328 121.752 197.328C122.712 197.328 123.348 196.968 123.348 196.284C123.348 195.696 122.856 195.408 122.064 195.3L120.972 195.144C119.856 195 119.1 194.448 119.1 193.368C119.1 192.156 120.192 191.436 121.716 191.436C123.372 191.436 124.32 192.264 124.32 193.236H123.204C123.192 192.66 122.64 192.288 121.692 192.288C120.78 192.288 120.216 192.66 120.216 193.284C120.216 193.812 120.6 194.112 121.344 194.22L122.424 194.364C123.684 194.544 124.464 195.12 124.464 196.188C124.464 197.472 123.324 198.18 121.728 198.18C120.024 198.18 118.932 197.424 118.92 196.272Z" fill="black"/>
<path d="M252 114H299" stroke="#5B616E" stroke-opacity="0.2" stroke-width="2"/>
<path d="M162 114H199" stroke="#5B616E" stroke-opacity="0.2" stroke-width="2"/>
<path d="M150 -18H162V234" stroke="#5B616E" stroke-opacity="0.2" stroke-width="2"/>
</g>
<rect x="0.5" y="0.5" width="535" height="199" rx="15.5" stroke="#EEF0F3"/>
<defs>
<filter id="filter0_d_7342_187634" x="403" y="73" width="111" height="182" filterUnits="userSpaceOnUse" color-interpolation-filters="sRGB">
<feFlood flood-opacity="0" result="BackgroundImageFix"/>
<feColorMatrix in="SourceAlpha" type="matrix" values="0 0 0 0 0 0 0 0 0 0 0 0 0 0 0 0 0 0 127 0" result="hardAlpha"/>
<feOffset dy="8"/>
<feGaussianBlur stdDeviation="6"/>
<feColorMatrix type="matrix" values="0 0 0 0 0.356863 0 0 0 0 0.380392 0 0 0 0 0.431373 0 0 0 0.12 0"/>
<feBlend mode="normal" in2="BackgroundImageFix" result="effect1_dropShadow_7342_187634"/>
<feBlend mode="normal" in="SourceGraphic" in2="effect1_dropShadow_7342_187634" result="shape"/>
</filter>
<clipPath id="clip0_7342_187634">
<rect width="536" height="200" rx="16" fill="white"/>
</clipPath>
<clipPath id="clip1_7342_187634">
<path d="M300 38.1896C300 30.3529 306.353 24 314.19 24H585.81C593.647 24 600 30.3529 600 38.1896V177.81C600 185.647 593.647 192 585.81 192H314.19C306.353 192 300 185.647 300 177.81V38.1896Z" fill="white"/>
</clipPath>
</defs>
</svg>
