<svg width="434" height="195" viewBox="0 0 434 195" fill="none" xmlns="http://www.w3.org/2000/svg">
<g clip-path="url(#clip0_11070_7323)">
<rect x="0.5" width="433" height="195" rx="16" fill="url(#paint0_linear_11070_7323)" fill-opacity="0.4"/>
<g style="mix-blend-mode:color-burn" opacity="0.4">
<g style="mix-blend-mode:soft-light" opacity="0.3">
<path d="M246.076 141.12C178.964 185.854 137.819 242.011 69.9133 140.137C2.00736 38.2631 1.36342 -80.5864 68.475 -125.321C135.587 -170.055 245.04 -123.735 312.946 -21.8611C380.852 80.0127 313.188 96.3851 246.076 141.12Z" fill="#5D4CFE"/>
</g>
<g style="mix-blend-mode:soft-light" opacity="0.3">
<path d="M265.81 170.725C198.698 215.459 157.553 271.616 89.6472 169.742C21.7412 67.8681 21.0973 -50.9814 88.2089 -95.7159C155.32 -140.45 264.774 -94.1299 332.68 7.74389C400.586 109.618 332.921 125.99 265.81 170.725Z" fill="#5D4CFE"/>
</g>
<g style="mix-blend-mode:soft-light" opacity="0.3">
<path d="M285.544 200.33C218.432 245.064 177.287 301.221 109.381 199.347C41.4751 97.4731 40.8312 -21.3764 107.943 -66.1109C175.054 -110.845 284.508 -64.5249 352.414 37.3489C420.319 139.223 352.655 155.595 285.544 200.33Z" fill="#5D4CFE"/>
</g>
<g style="mix-blend-mode:soft-light" opacity="0.3">
<path d="M305.278 229.935C238.166 274.67 197.021 330.827 129.115 228.953C61.209 127.079 60.5651 8.22955 127.677 -36.5049C194.788 -81.2394 304.241 -34.9189 372.147 66.9548C440.053 168.829 372.389 185.201 305.278 229.935Z" fill="#5D4CFE"/>
</g>
<g style="mix-blend-mode:soft-light" opacity="0.3">
<path d="M325.012 259.541C257.9 304.275 216.755 360.432 148.849 258.558C80.9434 156.684 80.2995 37.835 147.411 -6.89947C214.523 -51.634 323.976 -5.31345 391.882 96.5603C459.788 198.434 392.124 214.806 325.012 259.541Z" fill="#5D4CFE"/>
</g>
<g style="mix-blend-mode:soft-light" opacity="0.3">
<path d="M344.745 289.146C277.634 333.88 236.489 390.037 168.583 288.163C100.677 186.289 100.033 67.44 167.144 22.7055C234.256 -22.029 343.709 24.2915 411.615 126.165C479.521 228.039 411.857 244.411 344.745 289.146Z" fill="#5D4CFE"/>
</g>
<g style="mix-blend-mode:soft-light" opacity="0.3">
<path d="M364.48 318.751C297.368 363.485 256.223 419.642 188.317 317.768C120.411 215.894 119.767 97.045 186.879 52.3105C253.99 7.576 363.444 53.8965 431.35 155.77C499.255 257.644 431.591 274.016 364.48 318.751Z" fill="#5D4CFE"/>
</g>
</g>
<path d="M202.39 70.1577C209.145 70.1577 214.622 75.6342 214.622 82.3898V94.6218H202.39C195.634 94.6218 190.158 89.1453 190.158 82.3898C190.158 75.6342 195.634 70.1577 202.39 70.1577ZM202.39 100.378H214.622V112.61C214.622 119.366 209.145 124.842 202.39 124.842C195.634 124.842 190.158 119.366 190.158 112.61C190.158 105.855 195.634 100.378 202.39 100.378ZM232.61 70.1577C239.366 70.1577 244.842 75.6342 244.842 82.3898C244.842 89.1453 239.366 94.6218 232.61 94.6218H220.378V82.3898C220.378 75.6342 225.855 70.1577 232.61 70.1577ZM220.378 100.378H232.61C239.366 100.378 244.842 105.855 244.842 112.61C244.842 119.366 239.366 124.842 232.61 124.842C225.855 124.842 220.378 119.366 220.378 112.61V100.378Z" fill="white"/>
</g>
<defs>
<linearGradient id="paint0_linear_11070_7323" x1="14.3059" y1="-13.6145" x2="331.865" y2="270.199" gradientUnits="userSpaceOnUse">
<stop stop-color="#5D4CFE"/>
<stop offset="1" stop-color="#009CDE"/>
</linearGradient>
<clipPath id="clip0_11070_7323">
<rect x="0.5" width="433" height="195" rx="16" fill="white"/>
</clipPath>
</defs>
</svg>
