<svg width="434" height="195" viewBox="0 0 434 195" fill="none" xmlns="http://www.w3.org/2000/svg">
<g clip-path="url(#clip0_11070_7364)">
<rect x="0.5" width="433" height="195" rx="16" fill="url(#paint0_linear_11070_7364)" fill-opacity="0.4"/>
<g style="mix-blend-mode:color-burn" opacity="0.4">
<g style="mix-blend-mode:soft-light" opacity="0.3">
<path d="M246.076 141.12C178.964 185.854 137.819 242.011 69.9133 140.137C2.00736 38.2631 1.36342 -80.5864 68.475 -125.321C135.587 -170.055 245.04 -123.735 312.946 -21.8611C380.852 80.0127 313.188 96.3851 246.076 141.12Z" fill="#5D4CFE"/>
</g>
<g style="mix-blend-mode:soft-light" opacity="0.3">
<path d="M265.81 170.725C198.698 215.459 157.553 271.616 89.6472 169.742C21.7412 67.8681 21.0973 -50.9814 88.2089 -95.7159C155.32 -140.45 264.774 -94.1299 332.68 7.74389C400.586 109.618 332.921 125.99 265.81 170.725Z" fill="#5D4CFE"/>
</g>
<g style="mix-blend-mode:soft-light" opacity="0.3">
<path d="M285.544 200.33C218.432 245.064 177.287 301.221 109.381 199.347C41.4751 97.4731 40.8312 -21.3764 107.943 -66.1109C175.054 -110.845 284.508 -64.5249 352.414 37.3489C420.319 139.223 352.655 155.595 285.544 200.33Z" fill="#5D4CFE"/>
</g>
<g style="mix-blend-mode:soft-light" opacity="0.3">
<path d="M305.278 229.935C238.166 274.67 197.021 330.827 129.115 228.953C61.209 127.079 60.5651 8.22955 127.677 -36.5049C194.788 -81.2394 304.241 -34.9189 372.147 66.9548C440.053 168.829 372.389 185.201 305.278 229.935Z" fill="#5D4CFE"/>
</g>
<g style="mix-blend-mode:soft-light" opacity="0.3">
<path d="M325.012 259.541C257.9 304.275 216.755 360.432 148.849 258.558C80.9434 156.684 80.2995 37.835 147.411 -6.89947C214.523 -51.634 323.976 -5.31345 391.882 96.5603C459.788 198.434 392.124 214.806 325.012 259.541Z" fill="#5D4CFE"/>
</g>
<g style="mix-blend-mode:soft-light" opacity="0.3">
<path d="M344.745 289.146C277.634 333.88 236.489 390.037 168.583 288.163C100.677 186.289 100.033 67.44 167.144 22.7055C234.256 -22.029 343.709 24.2915 411.615 126.165C479.521 228.039 411.857 244.411 344.745 289.146Z" fill="#5D4CFE"/>
</g>
<g style="mix-blend-mode:soft-light" opacity="0.3">
<path d="M364.48 318.751C297.368 363.485 256.223 419.642 188.317 317.768C120.411 215.894 119.767 97.045 186.879 52.3105C253.99 7.576 363.444 53.8965 431.35 155.77C499.255 257.644 431.591 274.016 364.48 318.751Z" fill="#5D4CFE"/>
</g>
</g>
<path d="M246.281 120.525V126.281H188.718V120.525H191.597V101.075C188.126 98.752 185.84 94.7952 185.84 90.3047C185.84 87.9241 186.486 85.6312 187.663 83.6777L195.469 70.1578C195.983 69.2673 196.933 68.7188 197.961 68.7188H237.038C238.067 68.7188 239.017 69.2673 239.531 70.1578L247.31 83.6324C248.513 85.6312 249.159 87.9241 249.159 90.3047C249.159 94.7952 246.874 98.752 243.403 101.075V120.525H246.281ZM199.623 74.475L192.621 86.6012C191.954 87.7099 191.597 88.9776 191.597 90.3047C191.597 94.2785 194.818 97.5 198.792 97.5C201.759 97.5 204.389 95.6877 205.474 92.9799C206.44 90.5701 209.851 90.5701 210.817 92.9799C211.903 95.6877 214.532 97.5 217.5 97.5C220.467 97.5 223.097 95.6877 224.182 92.9799C225.148 90.5701 228.559 90.5701 229.525 92.9799C230.61 95.6877 233.24 97.5 236.208 97.5C240.181 97.5 243.403 94.2785 243.403 90.3047C243.403 88.9776 243.046 87.7099 242.351 86.5558L235.377 74.475H199.623Z" fill="white"/>
</g>
<defs>
<linearGradient id="paint0_linear_11070_7364" x1="14.3059" y1="-13.6145" x2="331.865" y2="270.199" gradientUnits="userSpaceOnUse">
<stop stop-color="#6ED0B1"/>
<stop offset="1" stop-color="#9265E9"/>
</linearGradient>
<clipPath id="clip0_11070_7364">
<rect x="0.5" width="433" height="195" rx="16" fill="white"/>
</clipPath>
</defs>
</svg>
