<?xml version="1.0" encoding="UTF-8"?>
<svg id="Layer_1" xmlns="http://www.w3.org/2000/svg" version="1.1" viewBox="0 0 128 128">
  <!-- Generator: Adobe Illustrator 30.3.0, SVG Export Plug-In . SVG Version: 2.1.1 Build 104)  -->
  <defs>
    <style>
      .st0 {
        fill: #b2c600;
      }

      .st1 {
        fill: #a6b800;
      }

      .st2 {
        fill: #808e02;
      }
    </style>
  </defs>
  <path class="st0" d="M51.56,21.11c5.48,4.5,11.34,8.12,17.58,10.88.08.04.18.05.27.03.09-.02.17-.06.24-.12,3.21-3.14,6.06-6.53,8.53-10.14,1.28-1.87,2.14-3,1.16-4.9-1.19-2.29-2.86-4.49-5.01-6.62-3.02-2.99-6.34-5.68-9.95-8.07-.11-.07-.24-.11-.38-.11-.13,0-.26.04-.37.12-2.27,1.58-4.63,3.39-7.08,5.44-3.5,2.92-6.25,6.18-8.31,10.01-.04.08-.06.18-.05.27.01.09.06.18.12.24,1.17,1.16,2.25,2.14,3.26,2.96Z"/>
  <path class="st0" d="M21.42,45.4l15.76,8.8c.12.07.26.11.41.11.14,0,.29-.03.42-.09,9.17-4.41,17.67-9.92,25.5-16.5.26-.22.44-.43.54-.65,0-.02.02-.04.02-.06,0-.02,0-.04,0-.06,0-.02-.02-.04-.03-.05-.01-.02-.03-.03-.05-.04-1.6-.78-3.71-1.96-6.33-3.52-7.26-4.33-13.69-9.67-19.31-16.04-.07-.08-.17-.13-.28-.14-.11,0-.22.03-.3.1-8.8,7.37-14.28,16.68-16.43,27.92,0,.04,0,.09.01.13.02.04.05.07.09.1Z"/>
  <path class="st1" d="M62.35,46.96c-5.42,4.14-11.27,7.86-17.54,11.18-.02.01-.04.03-.05.05-.01.02-.02.05-.02.07s0,.05.02.07c.01.02.03.04.05.05l18.99,10.61c.07.04.16.06.24.06s.17-.02.24-.06l42.24-23.62c.06-.03.1-.08.13-.14.03-.06.03-.12.02-.19-2.28-11.21-7.77-20.48-16.48-27.81-.03-.02-.06-.04-.09-.05-.03,0-.07-.01-.1,0-.03,0-.07.02-.09.03-.03.02-.05.04-.07.07-7.62,11.36-16.56,21.33-27.48,29.68Z"/>
  <path class="st2" d="M55.67,73.56s.02-.05.02-.07,0-.05-.02-.07c-.01-.02-.03-.04-.05-.05L10.54,48.19s-.08-.03-.12-.02c-.04,0-.08.03-.1.07C5.62,55,1.71,62.38.46,70.64c-1.05,6.92-.3,13.91,2.22,20.98.05.15.16.28.31.36l9.73,5.44c.05.03.11.04.16.04s.11-.01.16-.04l42.57-23.81s.04-.03.05-.05Z"/>
  <path class="st2" d="M127.55,70.63c-1.24-8.26-5.15-15.64-9.84-22.41-.02-.04-.06-.06-.1-.07-.04,0-.09,0-.12.02l-53.49,29.7s-42.72,23.86-42.72,23.86c-.03.02-.06.04-.08.07s-.03.07-.03.1.01.07.03.11.05.06.08.08l42.66,23.83s.07.03.1.03.07,0,.1-.03l60.88-33.95c.14-.08.25-.21.31-.36,2.53-7.07,3.28-14.06,2.24-20.98Z"/>
</svg>