<svg width="23" height="24" viewBox="0 0 23 24" fill="none" xmlns="http://www.w3.org/2000/svg">
<path fill-rule="evenodd" clip-rule="evenodd" d="M1.35882 2.81428C0 4.50887 0 7.00591 0 12C0 16.9941 0 19.4911 1.35882 21.1857C1.64143 21.5382 1.96183 21.8586 2.31428 22.1412C4.00887 23.5 6.50591 23.5 11.5 23.5C16.4941 23.5 18.9911 23.5 20.6857 22.1412C21.0382 21.8586 21.3586 21.5382 21.6412 21.1857C23 19.4911 23 16.9941 23 12C23 7.00591 23 4.50887 21.6412 2.81428C21.3586 2.46183 21.0382 2.14143 20.6857 1.85882C18.9911 0.5 16.4941 0.5 11.5 0.5C6.50591 0.5 4.00887 0.5 2.31428 1.85882C1.96183 2.14143 1.64143 2.46183 1.35882 2.81428ZM4.89072 18.6094C7.65612 21.3749 12.8571 20.6575 16.5074 17.0071C20.1578 13.3568 20.8752 8.1558 18.1098 5.3904C15.3444 2.62499 10.1434 3.34238 6.49304 6.99272C2.8427 10.6431 2.12531 15.844 4.89072 18.6094Z" fill="url(#paint0_radial_18627_4984)"/>
<circle cx="13.7568" cy="9.85682" r="2.33222" fill="#00BBA7"/>
<defs>
<radialGradient id="paint0_radial_18627_4984" cx="0" cy="0" r="1" gradientUnits="userSpaceOnUse" gradientTransform="translate(5.31033 5.98244) rotate(70.5397) scale(18.5789 18.5789)">
<stop stop-color="#009689"/>
<stop offset="1" stop-color="#00BBA7"/>
</radialGradient>
</defs>
</svg>
