<svg width="23" height="23" viewBox="0 0 23 23" fill="none" xmlns="http://www.w3.org/2000/svg">
<circle cx="11.4104" cy="11.5895" r="11.4104" fill="url(#paint0_radial_17879_10277)"/>
<path fill-rule="evenodd" clip-rule="evenodd" d="M12.5617 5.27258C11.4642 6.22944 10.3328 7.72886 9.83643 9.55225C18.1742 12.3109 18.4505 18.2958 17.3471 21.3404L17.3974 21.369C18.5077 20.2526 19.6277 18.3292 19.7102 15.9566H18.206L19.5861 14.2315C19.3672 13.0047 18.8547 11.694 17.9335 10.3387H16.1505L17.0651 9.19541C15.9814 7.90656 14.5116 6.58822 12.5617 5.27258Z" fill="white"/>
<path fill-rule="evenodd" clip-rule="evenodd" d="M5.30396 12.1418C5.37463 10.8888 5.71281 9.72429 6.14217 8.80664C10.2531 9.54376 12.9828 10.9006 14.7409 12.4991L14.0176 13.4032H15.6147C18.0172 16.2475 17.8341 19.5885 17.0717 21.5748C12.4682 21.1086 9.53726 19.8235 7.75011 18.1944L8.39917 16.8933L6.84802 17.2272C5.79679 15.8894 5.35982 14.4025 5.2981 12.9812L5.96904 12.1413L5.30396 12.1418Z" fill="#5DE317"/>
<defs>
<radialGradient id="paint0_radial_17879_10277" cx="0" cy="0" r="1" gradientUnits="userSpaceOnUse" gradientTransform="translate(12.523 0.179077) rotate(109.62) scale(17.2458 31.0052)">
<stop offset="0.312068" stop-color="#329100"/>
<stop offset="1" stop-color="#5DE317"/>
</radialGradient>
</defs>
</svg>
