<?xml version="1.0" encoding="UTF-8"?>
<svg id="Layer_1" xmlns="http://www.w3.org/2000/svg" version="1.1" viewBox="0 0 99.67 24">
  <!-- Generator: Adobe Illustrator 30.4.0, SVG Export Plug-In . SVG Version: 2.1.3 Build 42)  -->
  <defs>
    <style>
      .st0 {
        fill: #ed5e34;
      }

      .st1 {
        fill: #fff;
      }
    </style>
  </defs>
  <path class="st1" d="M38.55,8.14c0,1.05-.26,2.05-.79,3.01-.52.98-1.2,1.69-2.03,2.14-.53.29-1.11.49-1.76.62-.67.13-1.58.19-2.74.19h-.35l-.92-.03v7.18h-3.56V2.28h5.91c1.84,0,3.35.54,4.5,1.63,1.16,1.08,1.73,2.49,1.73,4.23ZM35,8.14c0-.92-.31-1.56-.93-1.9-.61-.34-1.73-.52-3.36-.52h-.75v4.93h1.38c2.44,0,3.66-.84,3.66-2.52Z"/>
  <path class="st1" d="M53.85,14.02c0,.51-.06,1.06-.19,1.65h-10.98c.63,1.81,1.86,2.71,3.69,2.71,1.34,0,2.39-.42,3.17-1.25h3.79c-.34,1.23-1.19,2.3-2.55,3.2-1.37.92-2.82,1.38-4.34,1.38-2.06,0-3.82-.73-5.29-2.2-1.46-1.47-2.19-3.24-2.19-5.32s.74-3.92,2.22-5.42c1.47-1.48,3.24-2.22,5.32-2.22s3.73.73,5.18,2.2c1.45,1.47,2.17,3.22,2.17,5.26ZM50.38,12.63c-.33-.86-.81-1.54-1.46-2.03-.67-.47-1.46-.7-2.36-.7s-1.69.23-2.38.7c-.71.49-1.23,1.17-1.58,2.03h7.79Z"/>
  <path class="st1" d="M69.67,21.26h-3.17v-1.9c-1.23,1.58-2.89,2.36-4.97,2.36-1.97,0-3.61-.72-4.93-2.14-1.32-1.43-1.98-3.23-1.98-5.4s.68-3.96,2.03-5.42c1.35-1.47,3.04-2.2,5.04-2.2s3.52.81,4.8,2.42v-1.95h3.17v14.23ZM66.39,14.16c0-1.25-.38-2.27-1.14-3.07-.76-.79-1.75-1.19-2.98-1.19l-.3.03c-1.12,0-2.05.42-2.79,1.25-.74.83-1.11,1.84-1.11,3.03s.41,2.2,1.22,3.01c.82.81,1.82,1.22,3.01,1.22s2.13-.41,2.93-1.24c.78-.82,1.17-1.83,1.17-3.04Z"/>
  <path class="st1" d="M85.43,16.65c-.53,1.54-1.43,2.77-2.71,3.69s-2.74,1.38-4.36,1.38c-2.1,0-3.89-.74-5.38-2.22-1.48-1.48-2.22-3.27-2.22-5.37s.73-3.9,2.19-5.37c1.47-1.47,3.25-2.2,5.37-2.2,1.65,0,3.14.48,4.48,1.44,1.32.98,2.2,2.23,2.63,3.77h-3.88c-.72-1.26-1.8-1.89-3.23-1.89-1.19,0-2.18.4-2.95,1.19-.78.79-1.17,1.81-1.17,3.04s.4,2.25,1.19,3.07c.79.81,1.79,1.22,2.99,1.22,1.34,0,2.39-.58,3.17-1.73h3.88Z"/>
  <path class="st1" d="M99.67,21.26h-3.44v-7.97c0-1.03-.25-1.86-.76-2.47-.51-.61-1.18-.92-2.03-.92-.67,0-1.24.16-1.71.49-.47.32-.8.76-.98,1.32-.18.56-.27,1.42-.27,2.58v6.97h-3.47V2.28h3.47v5.77c.89-.99,2.09-1.49,3.61-1.49,1.63,0,2.97.56,4.01,1.68,1.05,1.12,1.58,2.56,1.58,4.31v8.71Z"/>
  <path class="st0" d="M12,0c5.76,0,10.43,4.67,10.43,10.43,0,5.76-4.67,10.43-10.43,10.43v3.13C5.37,24,0,18.63,0,12S5.37,0,12,0ZM12,4.28c-3.4,0-6.16,2.76-6.16,6.16,0,3.4,2.76,6.16,6.16,6.16s6.16-2.76,6.16-6.16c0-3.4-2.76-6.16-6.16-6.16Z"/>
</svg>