<svg width="960" height="540" viewBox="0 0 960 540" fill="none" xmlns="http://www.w3.org/2000/svg">
  <rect width="960" height="540" rx="24" fill="#FFF7F2"/>
  <rect x="40" y="40" width="880" height="460" rx="20" fill="white" stroke="#F2C4B7"/>
  <rect x="72" y="88" width="816" height="132" rx="16" fill="#FFFDFB" stroke="#F2C4B7"/>
  <rect x="72" y="252" width="396" height="204" rx="16" fill="#FFF1EB" stroke="#F2C4B7"/>
  <rect x="492" y="252" width="396" height="204" rx="16" fill="#FFFDFB" stroke="#F2C4B7"/>
  <rect x="104" y="132" width="200" height="18" rx="9" fill="#E85D3A"/>
  <rect x="104" y="168" width="300" height="10" rx="5" fill="#F2C4B7"/>
  <rect x="104" y="294" width="180" height="18" rx="9" fill="#E85D3A"/>
  <rect x="104" y="332" width="220" height="10" rx="5" fill="#F2C4B7"/>
  <rect x="104" y="356" width="220" height="10" rx="5" fill="#F2C4B7"/>
  <rect x="524" y="294" width="180" height="18" rx="9" fill="#E85D3A"/>
  <rect x="524" y="332" width="220" height="10" rx="5" fill="#F2C4B7"/>
  <rect x="524" y="356" width="220" height="10" rx="5" fill="#F2C4B7"/>
  <text x="76" y="78" fill="#8B3A23" font-size="16" font-family="Arial, sans-serif">Billing overview</text>
  <text x="76" y="242" fill="#8B3A23" font-size="16" font-family="Arial, sans-serif">Payment methods</text>
  <text x="496" y="242" fill="#8B3A23" font-size="16" font-family="Arial, sans-serif">Billing contacts</text>
</svg>
