<?xml version="1.0" encoding="UTF-8"?>
<svg id="Layer_1" data-name="Layer 1" xmlns="http://www.w3.org/2000/svg" viewBox="0 0 260 95.5">
  <defs>
    <style>
      .cls-1 {
        fill: #00a87b;
      }

      .cls-1, .cls-2 {
        stroke-width: 0px;
      }

      .cls-2 {
        fill: #14181b;
      }
    </style>
  </defs>
  <path class="cls-1" d="M47.31,13.64c8.34,0,15.99,3.07,21.85,8.13l7.94-9.46c.44-.52.37-1.31-.15-1.74C67.88,3.19,56.15-.87,43.43.16,20.05,2.03,1.4,21.36.08,45c-1.54,27.56,20.25,50.5,47.23,50.5,11.24,0,21.54-3.96,29.68-10.57.51-.41.59-1.16.2-1.69l-7.58-9.02c-5.91,5.06-13.97,7.63-22.3,7.63-18.64,0-33.79-15.29-33.79-34.11S28.67,13.64,47.31,13.64"/>
  <g>
    <path class="cls-1" d="M209.46,18.59l-13.37,21.65-13.18-21.64c-.22-.36-.61-.58-1.03-.58h-8.37c-.67,0-1.21.55-1.21,1.22v45.22c0,.67.54,1.22,1.21,1.22h8.71c.67,0,1.21-.55,1.21-1.22v-13.62c0-4.4-.1-8.2-.3-11.4-.05-.76-.1-1.51-.17-2.26l10.3,16.36c.22.35.61.57,1.02.57h3.13c.41,0,.79-.21,1.02-.56l10.62-16.63c-.09.96-.16,1.93-.22,2.9-.2,3.27-.3,6.95-.3,11.03v13.62c0,.67.54,1.22,1.21,1.22h9.92V18.02h-9.18c-.42,0-.81.22-1.03.58Z"/>
    <path class="cls-1" d="M258.79,55.47h-19.84V19.24c0-.67-.54-1.22-1.21-1.22h-10.26v47.66h31.3c.67,0,1.21-.55,1.21-1.22v-7.77c0-.67-.54-1.22-1.21-1.22Z"/>
  </g>
  <g>
    <path class="cls-2" d="M93.05,33.96c-1.53-1.63-3.34-2.9-5.43-3.81-2.09-.91-4.4-1.36-6.91-1.36-2.65,0-5.09.47-7.32,1.4-2.23.93-4.15,2.25-5.77,3.95-1.62,1.7-2.88,3.71-3.78,6.03-.9,2.32-1.35,4.86-1.35,7.63,0,3.59.81,6.77,2.43,9.57,1.62,2.79,3.89,4.99,6.81,6.6,2.92,1.61,6.36,2.42,10.32,2.42,1.62,0,3.25-.19,4.89-.58,1.64-.38,3.25-.96,4.82-1.74,1.23-.61,2.41-1.35,3.54-2.24.52-.41.64-1.15.26-1.69l-3.7-5.28c-.38-.55-1.13-.68-1.67-.3-1.03.72-2,1.25-2.91,1.6-1.19.45-2.55.68-4.08.68-2.2,0-4.1-.41-5.7-1.23-1.6-.82-2.81-1.96-3.64-3.44-.38-.68-.68-1.42-.88-2.21h23.41c.66,0,1.19-.53,1.21-1.19l.04-1.73c.09-2.63-.27-5.06-1.08-7.29-.81-2.22-1.98-4.15-3.51-5.79ZM73.56,42.03c.63-1.34,1.56-2.36,2.8-3.06,1.24-.7,2.73-1.06,4.49-1.06,1.26,0,2.38.25,3.37.75.99.5,1.79,1.19,2.39,2.08.61.89.95,1.9,1.05,3.03v.07h-14.71c.15-.65.35-1.26.61-1.8Z"/>
    <path class="cls-2" d="M132.71,30.46c-1.84-1.11-4.12-1.67-6.81-1.67-1.98,0-3.87.41-5.67,1.23-1.48.67-3.91,1.86-5.44,3-.49.37-1.18.32-1.6-.13-1.19-1.29-3.32-3.14-7.12-3.33l-.42-.02c-.62-.03-1.13.47-1.13,1.09v33.85c0,.67.54,1.22,1.21,1.22h8.37c.67,0,1.21-.55,1.21-1.22v-20.43c0-.86.17-1.66.51-2.38.34-.73.8-1.37,1.38-1.94.58-.57,1.28-1,2.09-1.29.81-.29,1.69-.44,2.63-.44,1.21-.04,2.24.17,3.07.65.83.48,1.45,1.19,1.85,2.14.41.95.61,2.16.61,3.61v20.09c0,.67.54,1.22,1.21,1.22h8.44c.67,0,1.21-.55,1.21-1.22v-20.98c0-3.18-.47-5.87-1.42-8.07-.94-2.2-2.34-3.86-4.18-4.97Z"/>
    <path class="cls-2" d="M165.84,28.79h-5.74v-8.38l-9.77,1.55c-.59.09-1.02.61-1.02,1.21v5.62h-6.19c-.68,0-1.06.8-.63,1.33,1.76,2.19,2.82,4.83,3.29,7.59.06.35.35.61.7.61h2.83v26.15c0,.67.54,1.22,1.21,1.22h8.37c.67,0,1.21-.55,1.21-1.22v-26.15h5.74c.67,0,1.21-.55,1.21-1.22v-7.09c0-.67-.54-1.22-1.21-1.22Z"/>
    <path class="cls-2" d="M47.42,38.2c2.01,0,3.88.25,5.4,1.37.25.18,1.3.33,1.73-.19l5.5-6.56c-3.56-3.18-8.27-5.08-13.43-4.95-10.03.25-18.39,8.35-19,18.46-.7,11.45,8.3,20.96,19.49,20.96,4.97,0,9.5-1.87,12.94-4.96l-5.5-6.56c-.44-.52-1.47-.38-1.73-.19-1.53,1.13-3.39,1.37-5.4,1.37-5.19,0-8.3-3.97-8.3-9.38s3.11-9.38,8.3-9.38Z"/>
  </g>
</svg>