<svg width="424" height="244" viewBox="0 0 424 244" fill="none" xmlns="http://www.w3.org/2000/svg">
<g style="mix-blend-mode:plus-darker" opacity="0.3">
<path d="M227.576 165.62C160.464 210.354 119.319 266.511 51.4133 164.637C-16.4926 62.7631 -17.1366 -56.0864 49.975 -100.821C117.087 -145.555 226.54 -99.2348 294.446 2.63891C362.352 104.513 294.688 120.885 227.576 165.62Z" fill="#9265E9"/>
</g>
<g style="mix-blend-mode:plus-darker" opacity="0.3">
<path d="M247.31 195.225C180.198 239.959 139.053 296.116 71.1472 194.242C3.24124 92.3681 2.59731 -26.4814 69.7089 -71.2159C136.82 -115.95 246.274 -69.6299 314.18 32.2439C382.086 134.118 314.421 150.49 247.31 195.225Z" fill="#9265E9"/>
</g>
<g style="mix-blend-mode:screen" opacity="0.3">
<path d="M267.044 224.83C199.932 269.564 158.787 325.721 90.881 223.847C22.9751 121.973 22.3312 3.12359 89.4427 -41.6109C156.554 -86.3454 266.008 -40.0249 333.914 61.8489C401.819 163.723 334.155 180.095 267.044 224.83Z" fill="white"/>
</g>
<g style="mix-blend-mode:screen" opacity="0.3">
<path d="M286.778 254.435C219.666 299.17 178.521 355.327 110.615 253.453C42.709 151.579 42.0651 32.7296 109.177 -12.0049C176.288 -56.7394 285.741 -10.4189 353.647 91.4548C421.553 193.329 353.889 209.701 286.778 254.435Z" fill="white"/>
</g>
<g style="mix-blend-mode:screen" opacity="0.3">
<path d="M306.512 284.041C239.4 328.775 198.255 384.932 130.349 283.058C62.4434 181.184 61.7995 62.335 128.911 17.6005C196.023 -27.134 305.476 19.1866 373.382 121.06C441.288 222.934 373.624 239.306 306.512 284.041Z" fill="#009CDE"/>
</g>
<g style="mix-blend-mode:plus-darker" opacity="0.3">
<path d="M326.245 313.646C259.134 358.38 217.989 414.537 150.083 312.663C82.1768 210.789 81.5329 91.94 148.644 47.2055C215.756 2.47102 325.209 48.7915 393.115 150.665C461.021 252.539 393.357 268.911 326.245 313.646Z" fill="#6ED0B1"/>
</g>
<g style="mix-blend-mode:plus-darker" opacity="0.3">
<path d="M345.98 343.251C278.868 387.985 237.723 444.142 169.817 342.268C101.911 240.394 101.267 121.545 168.379 76.8105C235.49 32.076 344.944 78.3965 412.85 180.27C480.755 282.144 413.091 298.516 345.98 343.251Z" fill="#9265E9"/>
</g>
</svg>
