<svg width="96" height="24" viewBox="0 0 96 24" fill="none" xmlns="http://www.w3.org/2000/svg">
<circle cx="11.1234" cy="11.9999" r="11.1234" fill="#D69900"/>
<path d="M17.9546 16.8225H13.5737C13.6913 16.4129 13.7583 15.9671 13.7583 15.5002C13.7581 13.5051 12.5787 11.8881 11.1235 11.8879C9.66826 11.8879 8.48795 13.505 8.48779 15.5002C8.48779 15.967 8.55481 16.4129 8.67236 16.8225H4.29248L11.1235 4.99048L17.9546 16.8225Z" fill="white"/>
<path d="M31.0996 16.8757L29.3966 20.1419H26.2471L34.809 3.74121L43.3943 20.1419H40.2215L38.5417 16.8757H31.0996ZM37.072 14.0762L34.809 9.78356L32.5694 14.0762H37.072Z" fill="white"/>
<path d="M49.3748 20.2585C48.115 20.2585 47.0186 20.0486 45.9921 19.652C45.0822 19.302 44.2423 18.8121 43.4025 18.1122L45.1989 15.9659C46.4586 17.0157 47.6951 17.459 49.3748 17.459C50.378 17.459 51.3345 17.2257 51.9644 16.8057C52.5477 16.4325 52.8276 15.9426 52.8276 15.266C52.8276 14.7994 52.5943 14.4028 52.1511 14.0529C51.7311 13.7029 50.8913 13.283 49.3515 13.143C47.3452 12.9564 45.9221 12.4198 44.9889 11.4866C44.219 10.7167 43.8457 9.71357 43.8457 8.50044C43.8457 8.43045 43.8457 8.36046 43.8457 8.29047C43.8924 7.12399 44.5223 5.98084 45.5255 5.14098C46.2953 4.51109 47.6485 3.76454 49.7481 3.76454C51.1712 3.76454 52.6176 4.11448 53.8774 4.79104C54.8573 5.30429 55.4172 5.84087 55.4638 5.91086L53.5275 7.9172C53.5275 7.9172 53.1542 7.56725 52.4777 7.21731C51.6145 6.77405 50.7046 6.56408 49.7481 6.56408C49.0482 6.56408 48.0684 6.70406 47.3218 7.31063C46.8552 7.70723 46.6686 8.12716 46.6453 8.40712C46.6453 8.45378 46.6453 8.47711 46.6453 8.52376C46.6453 9.08367 46.8086 9.31697 46.9719 9.5036C47.2752 9.80689 47.9751 10.2035 49.6081 10.3435C51.3812 10.5068 52.8276 11.02 53.8774 11.8366C54.9973 12.7231 55.6272 13.9362 55.6272 15.266C55.6272 16.8757 54.8573 18.2755 53.4808 19.162C52.3843 19.8619 50.9379 20.2585 49.3748 20.2585Z" fill="white"/>
<path d="M64.5088 3.8112C67.0984 3.8112 69.1747 5.91086 69.1747 8.47711C69.1747 11.0434 67.0984 13.143 64.5088 13.143H60.0995V20.1419H57.3V3.8112H64.5088ZM65.8386 9.80689C66.1885 9.43362 66.3751 8.96703 66.3751 8.47711C66.3751 7.98719 66.1885 7.5206 65.8386 7.14732C65.4886 6.79738 65.022 6.61074 64.5088 6.61074H60.0995V10.3435H64.5088C64.9987 10.3435 65.4886 10.1568 65.8386 9.80689Z" fill="white"/>
<path d="M81.3649 3.85786V6.6574H73.1996V10.3201H79.8951V13.1197H73.1996V17.319H81.3649V20.1185H70.4V3.85786H81.3649Z" fill="white"/>
<path d="M85.4795 20.1419H82.6799V3.78787L92.4783 13.3996V3.8112H95.2779V20.1652L85.4795 10.4834V20.1419Z" fill="white"/>
</svg>
