<svg width="83" height="20" viewBox="0 0 83 20" fill="none" xmlns="http://www.w3.org/2000/svg">
  <path d="M25.6841 17.5919V2.18799H28.5448V14.9512H35.6526V17.5919H25.6841Z" fill="#0C0A09" />
  <path
    d="M42.0246 17.812C41.1884 17.812 40.4622 17.6286 39.8461 17.2618C39.2299 16.8804 38.7605 16.3449 38.4377 15.6554C38.115 14.9512 37.9536 14.115 37.9536 13.1468V5.99496H40.6603V12.5746C40.6603 13.1908 40.7556 13.7189 40.9464 14.159C41.1371 14.5845 41.4158 14.9146 41.7826 15.1493C42.1493 15.384 42.5894 15.5014 43.1029 15.5014C43.4843 15.5014 43.8291 15.4427 44.1372 15.3253C44.4599 15.1933 44.7387 15.0173 44.9734 14.7972C45.2081 14.5625 45.3915 14.2911 45.5235 13.983C45.6556 13.6602 45.7216 13.3155 45.7216 12.9487V5.99496H48.4283V17.5919H45.7876L45.7436 15.1713L46.2277 14.9072C46.0517 15.4647 45.7509 15.9635 45.3255 16.4036C44.9147 16.8291 44.4232 17.1738 43.8511 17.4379C43.2789 17.6873 42.6701 17.812 42.0246 17.812Z"
    fill="#0C0A09" />
  <path
    d="M51.1166 17.5919V5.99496H53.7792L53.8232 8.32755L53.3831 8.5036C53.5152 8.12217 53.7132 7.77008 53.9773 7.44733C54.2413 7.10991 54.5568 6.82384 54.9235 6.58911C55.2903 6.33971 55.679 6.149 56.0898 6.01697C56.5006 5.87026 56.9187 5.79691 57.3441 5.79691C57.975 5.79691 58.5324 5.8996 59.0166 6.10499C59.5154 6.2957 59.9261 6.60378 60.2489 7.02922C60.5863 7.45467 60.8357 7.99747 60.9971 8.65764L60.579 8.56962L60.755 8.21753C60.9164 7.86544 61.1438 7.55002 61.4372 7.27129C61.7306 6.97788 62.0607 6.72115 62.4274 6.50109C62.7942 6.26636 63.1756 6.09032 63.5717 5.97295C63.9825 5.85559 64.3859 5.79691 64.782 5.79691C65.6623 5.79691 66.3958 5.97295 66.9826 6.32504C67.5694 6.67713 68.0095 7.2126 68.3029 7.93145C68.5963 8.6503 68.743 9.53786 68.743 10.5941V17.5919H66.0144V10.7702C66.0144 10.1834 65.9337 9.69924 65.7723 9.31781C65.6256 8.93638 65.3909 8.65764 65.0681 8.48159C64.76 8.29088 64.3713 8.19552 63.9018 8.19552C63.5351 8.19552 63.183 8.26154 62.8455 8.39357C62.5228 8.51093 62.2441 8.68698 62.0093 8.92171C61.7746 9.14176 61.5912 9.39849 61.4592 9.6919C61.3272 9.98531 61.2611 10.3081 61.2611 10.6601V17.5919H58.5324V10.7482C58.5324 10.1907 58.4518 9.72858 58.2904 9.36182C58.129 8.98039 57.8943 8.69431 57.5862 8.5036C57.2781 8.29821 56.904 8.19552 56.4639 8.19552C56.0972 8.19552 55.7524 8.26154 55.4297 8.39357C55.1069 8.51093 54.8282 8.67964 54.5934 8.8997C54.3587 9.11976 54.1753 9.37649 54.0433 9.6699C53.9113 9.96331 53.8452 10.2861 53.8452 10.6381V17.5919H51.1166Z"
    fill="#0C0A09" />
  <path
    d="M75.6868 17.812C74.7333 17.812 73.8677 17.5479 73.0902 17.0198C72.3127 16.4916 71.6892 15.7728 71.2197 14.8632C70.7503 13.9537 70.5155 12.9194 70.5155 11.7604C70.5155 10.6015 70.7503 9.5672 71.2197 8.65764C71.6892 7.74807 72.3273 7.03656 73.1342 6.52309C73.9411 6.00963 74.8506 5.7529 75.8629 5.7529C76.4497 5.7529 76.9852 5.84092 77.4693 6.01697C77.9534 6.17834 78.3789 6.41307 78.7456 6.72114C79.1124 7.02922 79.4131 7.38131 79.6479 7.77741C79.8973 8.17352 80.066 8.59896 80.154 9.05374L79.5598 8.8997V5.99496H82.2885V17.5919H79.5378V14.8192L80.176 14.7092C80.0733 15.1053 79.8826 15.494 79.6038 15.8755C79.3398 16.2422 79.0024 16.5723 78.5916 16.8657C78.1955 17.1445 77.748 17.3719 77.2492 17.5479C76.7651 17.724 76.2443 17.812 75.6868 17.812ZM76.435 15.4134C77.0659 15.4134 77.6233 15.2593 78.1075 14.9512C78.5916 14.6432 78.9657 14.2177 79.2298 13.6749C79.5085 13.1174 79.6479 12.4793 79.6479 11.7604C79.6479 11.0563 79.5085 10.4328 79.2298 9.88995C78.9657 9.34715 78.5916 8.92171 78.1075 8.61363C77.6233 8.30555 77.0659 8.15151 76.435 8.15151C75.8042 8.15151 75.2467 8.30555 74.7626 8.61363C74.2932 8.92171 73.9264 9.34715 73.6623 9.88995C73.3983 10.4328 73.2662 11.0563 73.2662 11.7604C73.2662 12.4793 73.3983 13.1174 73.6623 13.6749C73.9264 14.2177 74.2932 14.6432 74.7626 14.9512C75.2467 15.2593 75.8042 15.4134 76.435 15.4134Z"
    fill="#0C0A09" />
  <path
    d="M9.492 0.260444C9.80841 -0.0792116 10.2006 -0.0903629 10.5175 0.248851C11.2885 1.0741 12.6485 2.84877 12.6486 4.87885C12.6486 5.91149 12.2917 6.87065 11.8434 7.67499L15.8083 3.71002C15.7899 3.649 15.7767 3.58523 15.7767 3.5182C15.7767 3.14927 16.076 2.85 16.4449 2.85C16.8138 2.85003 17.1131 3.14929 17.1131 3.5182C17.1129 3.88691 16.8137 4.18532 16.4449 4.18536C16.3895 4.18536 16.3362 4.17698 16.2847 4.16428L12.2565 8.19247C13.0743 7.72591 14.0595 7.3504 15.1211 7.35037C17.1559 7.35047 18.9135 8.72267 19.7396 9.492C20.0792 9.80837 20.0902 10.2006 19.7512 10.5175C18.9259 11.2885 17.1512 12.6485 15.1211 12.6486C14.0946 12.6486 13.1402 12.2964 12.3387 11.8518L16.2584 15.8947C16.3189 15.8777 16.382 15.8663 16.4481 15.8673C16.815 15.8731 17.1082 16.175 17.1026 16.5419C17.0968 16.9087 16.7948 17.2019 16.428 17.1964C16.0611 17.1906 15.7678 16.8877 15.7735 16.5208C15.7744 16.4664 15.7836 16.4141 15.7967 16.3638L11.7959 12.2375C12.2676 13.0591 12.6495 14.0512 12.6496 15.1211C12.6495 17.1558 11.2774 18.9135 10.508 19.7396C10.1916 20.0792 9.79943 20.0904 9.48251 19.7511C8.71148 18.9258 7.35152 17.1511 7.35142 15.1211C7.35153 14.0963 7.70143 13.1426 8.14505 12.3419L4.09261 16.271C4.10966 16.3316 4.12208 16.3946 4.12106 16.4607C4.11532 16.8279 3.81265 17.121 3.44548 17.1152C3.07842 17.1094 2.78524 16.8067 2.79098 16.4396C2.79699 16.0727 3.09956 15.7804 3.46656 15.7862C3.52088 15.787 3.57325 15.7952 3.6236 15.8083L7.76563 11.7938C6.94342 12.2664 5.95022 12.6495 4.87886 12.6496C2.84398 12.6495 1.08642 11.2773 0.260444 10.508C-0.0792116 10.1916 -0.0903629 9.79943 0.248851 9.48251C1.07421 8.71146 2.84898 7.35152 4.87886 7.35142C5.83622 7.3515 6.73134 7.65704 7.49792 8.05862L3.95665 4.40563C3.89643 4.42252 3.83371 4.43403 3.76799 4.43303C3.40154 4.4273 3.1089 4.12599 3.11454 3.75956C3.12027 3.39317 3.42167 3.10057 3.78802 3.10611C4.15452 3.11184 4.4472 3.41413 4.44147 3.78064C4.44059 3.83431 4.43113 3.88578 4.41828 3.93557L8.32422 7.96588C7.79835 7.10734 7.35037 6.03875 7.35037 4.87885C7.35047 2.84387 8.72272 1.08636 9.492 0.260444Z"
    fill="url(#luma_theme_logo_light_radial_gradient)" />
  <circle cx="10" cy="10.3362" r="1.50083" stroke="#FFE8B0" stroke-width="1.07925" />
  <defs>
    <radialGradient id="luma_theme_logo_light_radial_gradient" cx="0" cy="0" r="1" gradientUnits="userSpaceOnUse"
      gradientTransform="translate(9.99997 10) rotate(39.1137) scale(8.00296 8.00294)">
      <stop offset="0.254529" stop-color="#FF6600" />
      <stop offset="0.762079" stop-color="#FFECB7" />
      <stop offset="1" stop-color="#FFCC7F" />
    </radialGradient>
  </defs>
</svg>