<svg width="126" height="24" viewBox="0 0 126 24" fill="none" xmlns="http://www.w3.org/2000/svg">
<path d="M101.595 8.44733H107.085C106.969 8.56379 106.91 8.78007 106.91 9.09617C106.91 9.59528 107.068 10.4022 107.385 11.5169L109.181 17.9055C109.913 15.177 110.279 13.0142 110.279 11.417C110.279 9.93634 109.972 8.94644 109.356 8.44733H113.773C113.357 8.73016 112.958 9.17935 112.575 9.79492C112.193 10.4105 111.81 11.2507 111.427 12.3154C111.045 13.3636 110.754 14.2204 110.554 14.8858C110.354 15.5513 110.063 16.5579 109.68 17.9055L108.832 20.8253H105.638L103.317 12.6398C103.217 12.9393 103.067 13.4218 102.868 14.0873C102.685 14.7361 102.56 15.1853 102.493 15.4349L100.946 20.8253H97.7517L95.1314 11.5169C94.965 10.9013 94.8402 10.4521 94.7571 10.1693C94.6739 9.88643 94.5325 9.55369 94.3328 9.17104C94.1498 8.78839 93.9502 8.54715 93.7339 8.44733H99.3239C99.1576 8.59706 99.0744 8.86325 99.0744 9.2459C99.0744 9.66183 99.2241 10.4188 99.5236 11.5169L101.295 17.9055L101.994 15.4349C102.493 13.7545 102.743 12.3903 102.743 11.3422C102.743 10.0112 102.36 9.04626 101.595 8.44733Z" fill="#F4F4F5"/>
<path d="M82.7491 10.0195C83.947 8.87158 85.4776 8.29761 87.3409 8.29761C89.2043 8.29761 90.7349 8.87158 91.9328 10.0195C93.1306 11.1675 93.7296 12.7064 93.7296 14.6363C93.7296 16.5662 93.1306 18.1134 91.9328 19.278C90.7349 20.426 89.2043 21 87.3409 21C85.4776 21 83.947 20.426 82.7491 19.278C81.5679 18.1134 80.9773 16.5662 80.9773 14.6363C80.9773 12.7064 81.5679 11.1675 82.7491 10.0195ZM85.8686 19.1782C86.1514 20.1598 86.6422 20.6506 87.3409 20.6506C88.0397 20.6506 88.5305 20.1598 88.8133 19.1782C89.1128 18.18 89.2625 16.666 89.2625 14.6363C89.2625 12.6232 89.1128 11.1259 88.8133 10.1443C88.5305 9.16273 88.0397 8.67194 87.3409 8.67194C86.6422 8.67194 86.1514 9.16273 85.8686 10.1443C85.5857 11.1259 85.4443 12.6232 85.4443 14.6363C85.4443 16.666 85.5857 18.18 85.8686 19.1782Z" fill="#F4F4F5"/>
<path d="M79.0318 3.33136V17.7806C79.0318 19.5607 79.2647 20.5756 79.7305 20.8252H74.1405C74.623 20.5257 74.8642 19.5108 74.8642 17.7806V8.44724C74.8642 7.8483 74.8559 7.39911 74.8393 7.09964C74.8226 6.78354 74.7561 6.4508 74.6396 6.10142C74.5398 5.73541 74.3734 5.49417 74.1405 5.37771C74.8226 5.31116 75.7127 5.02833 76.8107 4.52922C77.9254 4.03011 78.6658 3.63083 79.0318 3.33136Z" fill="#F4F4F5"/>
<path d="M72.2441 3.33136V17.7806C72.2441 19.5607 72.477 20.5756 72.9428 20.8252H67.3528C67.8353 20.5257 68.0765 19.5108 68.0765 17.7806V8.44724C68.0765 7.8483 68.0682 7.39911 68.0515 7.09964C68.0349 6.78354 67.9684 6.4508 67.8519 6.10142C67.7521 5.73541 67.5857 5.49417 67.3528 5.37771C68.0349 5.31116 68.925 5.02833 70.023 4.52922C71.1377 4.03011 71.878 3.63083 72.2441 3.33136Z" fill="#F4F4F5"/>
<path d="M64.9845 6.77522C64.5686 7.12459 64.003 7.29928 63.2876 7.29928C62.5722 7.29928 61.9982 7.12459 61.5656 6.77522C61.1497 6.42584 60.9418 5.94337 60.9418 5.3278C60.9418 4.71223 61.1497 4.22976 61.5656 3.88038C61.9982 3.51437 62.5722 3.33136 63.2876 3.33136C64.003 3.33136 64.5686 3.51437 64.9845 3.88038C65.4171 4.22976 65.6334 4.71223 65.6334 5.3278C65.6334 5.94337 65.4171 6.42584 64.9845 6.77522ZM61.1913 17.7806V13.064C61.1913 12.4817 61.183 12.0408 61.1664 11.7414C61.1497 11.4253 61.0832 11.0925 60.9667 10.7431C60.8669 10.3771 60.7088 10.1359 60.4926 10.0194C61.1747 9.95288 62.0647 9.67837 63.1628 9.1959C64.2608 8.69679 65.0012 8.2975 65.3838 7.99804V17.7806C65.3838 19.5607 65.6167 20.5756 66.0826 20.8252H60.4926C60.792 20.6422 60.9833 20.3011 61.0665 19.802C61.1497 19.3029 61.1913 18.6291 61.1913 17.7806Z" fill="#F4F4F5"/>
<path d="M55.4345 3.60583H60.8C60.3175 4.02176 59.6853 5.31945 58.9034 7.49889C58.1214 9.67834 57.3728 12.099 56.6574 14.7609L55.0353 20.8251H51.6663L48.8463 10.818L45.9515 20.8251H42.5825L38.5896 6.70032C38.4066 6.08475 38.2652 5.63555 38.1653 5.35272C38.0655 5.05325 37.8991 4.7122 37.6662 4.32955C37.4499 3.94689 37.2253 3.70566 36.9924 3.60583H43.0816C42.8986 3.82212 42.8071 4.11326 42.8071 4.47928C42.8071 4.97839 42.9651 5.71873 43.2812 6.70032L46.3258 17.531C46.7251 16.1002 47.0661 14.5031 47.349 12.7395C47.6318 10.9594 47.7732 9.40383 47.7732 8.07287C47.7732 7.09128 47.6152 6.20121 47.299 5.40263C46.9829 4.60406 46.5753 4.00512 46.0762 3.60583H52.1903C52.0073 3.78884 51.9158 4.07999 51.9158 4.47928C51.9158 4.97839 52.0739 5.71873 52.39 6.70032L55.4096 17.3813C56.3745 13.7211 56.857 10.7265 56.857 8.39729C56.857 6.13466 56.3829 4.53751 55.4345 3.60583Z" fill="#F4F4F5"/>
<path d="M115.6 3.31015H118.589V4.60427C118.529 4.28698 118.397 4.00891 118.194 3.77005C117.994 3.53119 117.782 3.41176 117.557 3.41176V6.34759C117.557 6.47237 117.559 6.56863 117.563 6.63636C117.566 6.7041 117.58 6.77718 117.605 6.85561C117.63 6.93048 117.666 6.97861 117.712 7H116.477C116.58 6.93583 116.632 6.71836 116.632 6.34759V3.41176C116.408 3.41176 116.194 3.53119 115.99 3.77005C115.791 4.00891 115.661 4.28698 115.6 4.60427V3.31015ZM122.713 6.34759C122.713 6.72905 122.763 6.94652 122.862 7H121.627C121.73 6.93583 121.782 6.71836 121.782 6.34759V3.74331L120.793 7H120.269L119.194 3.68983C119.212 4.37433 119.274 5.04634 119.381 5.70588C119.492 6.36185 119.62 6.79323 119.766 7H118.739C118.871 6.87166 118.96 6.67201 119.007 6.40107C119.053 6.12656 119.076 5.61319 119.076 4.86096V3.97325C119.076 3.58466 119.026 3.36363 118.927 3.31015H120.114L120.932 5.95187L121.729 3.31015H122.862C122.763 3.37789 122.713 3.59892 122.713 3.97325V6.34759Z" fill="#F4F4F5"/>
<path fill-rule="evenodd" clip-rule="evenodd" d="M7.16159 4.96673C7.33291 5.91987 7.60244 6.90546 8.00329 7.81511C8.89519 9.83906 10.4997 11.5964 13.1886 11.5964V10.4505C11.1298 10.4505 9.84407 9.15064 9.05191 7.35302C8.65179 6.44506 8.39359 5.4382 8.24032 4.47393C9.10677 4.15364 10.0437 3.9787 11.0214 3.9787H13.336C13.4797 5.21784 13.7816 6.58582 14.3233 7.81511C15.2152 9.83906 16.8197 11.5964 19.5087 11.5964V10.4505C17.4499 10.4505 16.1641 9.15064 15.3719 7.35302C14.9027 6.28819 14.6286 5.08735 14.4901 3.9787H19.6564C19.8002 5.21784 20.1021 6.58582 20.6438 7.81511C21.5357 9.83906 23.1402 11.5964 25.8291 11.5964V10.4505C23.7703 10.4505 22.4845 9.15064 21.6924 7.35302C21.2231 6.28819 20.9491 5.08735 20.8106 3.9787H26.7731C30.7456 3.9787 34.2385 6.60772 35.3378 10.4251L38.1012 20.0215C36.0833 17.8232 32.7883 17.3683 30.2502 18.9377L30.0651 19.0522C29.041 19.6855 27.8607 20.0209 26.6566 20.021L20.8106 20.0211C20.9491 18.9125 21.2232 17.7118 21.6924 16.6471C22.4845 14.8495 23.7703 13.5496 25.8291 13.5496V12.4037C23.1402 12.4037 21.5357 14.161 20.6438 16.185C20.1021 17.4142 19.8002 18.7821 19.6564 20.0211L14.4902 20.0212C14.6287 18.9126 14.9027 17.7119 15.3719 16.6471C16.1641 14.8495 17.4499 13.5496 19.5087 13.5496V12.4037C16.8197 12.4037 15.2152 14.161 14.3233 16.185C13.7816 17.4142 13.4798 18.7822 13.336 20.0213L11.0216 20.0213C10.0438 20.0214 9.10684 19.8464 8.24034 19.5261C8.3936 18.5618 8.6518 17.555 9.05191 16.6471C9.84407 14.8495 11.1298 13.5496 13.1886 13.5496V12.4037C10.4997 12.4037 8.89519 14.161 8.00329 16.185C7.60245 17.0946 7.33292 18.0802 7.1616 19.0333C4.6811 17.6691 3.00012 15.0309 3.00012 12C3.00012 8.96916 4.68109 6.33092 7.16159 4.96673Z" fill="#007FFF"/>
</svg>
