<svg width="121" height="18" viewBox="0 0 121 18" fill="none" xmlns="http://www.w3.org/2000/svg">
<path d="M98.5949 5.44733H104.085C103.969 5.56379 103.91 5.78007 103.91 6.09617C103.91 6.59528 104.068 7.40217 104.385 8.51685L106.181 14.9055C106.913 12.177 107.279 10.0142 107.279 8.41703C107.279 6.93634 106.972 5.94644 106.356 5.44733H110.773C110.357 5.73016 109.958 6.17935 109.575 6.79492C109.193 7.41049 108.81 8.25066 108.427 9.31543C108.045 10.3636 107.754 11.2204 107.554 11.8858C107.354 12.5513 107.063 13.5579 106.68 14.9055L105.832 17.8253H102.638L100.317 9.63985C100.217 9.93932 100.067 10.4218 99.8676 11.0873C99.6846 11.7361 99.5598 12.1853 99.4933 12.4349L97.946 17.8253H94.7517L92.1314 8.51685C91.965 7.90128 91.8402 7.45208 91.7571 7.16926C91.6739 6.88643 91.5325 6.55369 91.3328 6.17104C91.1498 5.78839 90.9502 5.54715 90.7339 5.44733H96.3239C96.1576 5.59706 96.0744 5.86325 96.0744 6.2459C96.0744 6.66183 96.2241 7.41881 96.5236 8.51685L98.2954 14.9055L98.9942 12.4349C99.4933 10.7545 99.7428 9.3903 99.7428 8.34216C99.7428 7.0112 99.3602 6.04626 98.5949 5.44733Z" fill="#09090B"/>
<path d="M79.7491 7.01954C80.947 5.87158 82.4776 5.29761 84.3409 5.29761C86.2043 5.29761 87.7349 5.87158 88.9327 7.01954C90.1306 8.16749 90.7295 9.70641 90.7295 11.6363C90.7295 13.5662 90.1306 15.1134 88.9327 16.278C87.7349 17.426 86.2043 18 84.3409 18C82.4776 18 80.947 17.426 79.7491 16.278C78.5679 15.1134 77.9773 13.5662 77.9773 11.6363C77.9773 9.70641 78.5679 8.16749 79.7491 7.01954ZM82.8685 16.1782C83.1514 17.1598 83.6422 17.6506 84.3409 17.6506C85.0397 17.6506 85.5305 17.1598 85.8133 16.1782C86.1128 15.18 86.2625 13.666 86.2625 11.6363C86.2625 9.62323 86.1128 8.1259 85.8133 7.14431C85.5305 6.16273 85.0397 5.67194 84.3409 5.67194C83.6422 5.67194 83.1514 6.16273 82.8685 7.14431C82.5857 8.1259 82.4443 9.62323 82.4443 11.6363C82.4443 13.666 82.5857 15.18 82.8685 16.1782Z" fill="#09090B"/>
<path d="M76.0318 0.33136V14.7806C76.0318 16.5607 76.2647 17.5756 76.7306 17.8252H71.1405C71.623 17.5257 71.8642 16.5108 71.8642 14.7806V5.44724C71.8642 4.8483 71.8559 4.39911 71.8393 4.09964C71.8227 3.78354 71.7561 3.4508 71.6396 3.10142C71.5398 2.73541 71.3735 2.49417 71.1405 2.37771C71.8227 2.31116 72.7127 2.02833 73.8108 1.52922C74.9255 1.03011 75.6658 0.630826 76.0318 0.33136Z" fill="#09090B"/>
<path d="M69.2441 0.33136V14.7806C69.2441 16.5607 69.477 17.5756 69.9429 17.8252H64.3528C64.8353 17.5257 65.0766 16.5108 65.0766 14.7806V5.44724C65.0766 4.8483 65.0682 4.39911 65.0516 4.09964C65.035 3.78354 64.9684 3.4508 64.852 3.10142C64.7521 2.73541 64.5858 2.49417 64.3528 2.37771C65.035 2.31116 65.925 2.02833 67.0231 1.52922C68.1378 1.03011 68.8781 0.630826 69.2441 0.33136Z" fill="#09090B"/>
<path d="M61.9845 3.77522C61.5686 4.12459 61.0029 4.29928 60.2875 4.29928C59.5721 4.29928 58.9982 4.12459 58.5656 3.77522C58.1497 3.42584 57.9417 2.94337 57.9417 2.3278C57.9417 1.71223 58.1497 1.22976 58.5656 0.880381C58.9982 0.514367 59.5721 0.33136 60.2875 0.33136C61.0029 0.33136 61.5686 0.514367 61.9845 0.880381C62.4171 1.22976 62.6334 1.71223 62.6334 2.3278C62.6334 2.94337 62.4171 3.42584 61.9845 3.77522ZM58.1913 14.7806V10.064C58.1913 9.48171 58.183 9.04083 58.1663 8.74136C58.1497 8.42526 58.0831 8.09252 57.9667 7.74314C57.8669 7.37713 57.7088 7.13589 57.4925 7.01943C58.1746 6.95288 59.0647 6.67837 60.1628 6.1959C61.2608 5.69679 62.0011 5.2975 62.3838 4.99804V14.7806C62.3838 16.5607 62.6167 17.5756 63.0826 17.8252H57.4925C57.792 17.6422 57.9833 17.3011 58.0665 16.802C58.1497 16.3029 58.1913 15.6291 58.1913 14.7806Z" fill="#09090B"/>
<path d="M52.4345 0.605835H57.8C57.3175 1.02176 56.6853 2.31945 55.9034 4.49889C55.1214 6.67834 54.3728 9.09902 53.6574 11.7609L52.0353 17.8251H48.6663L45.8463 7.81797L42.9515 17.8251H39.5825L35.5896 3.70032C35.4066 3.08475 35.2652 2.63555 35.1653 2.35272C35.0655 2.05325 34.8991 1.7122 34.6662 1.32955C34.4499 0.946894 34.2253 0.705658 33.9924 0.605835H40.0816C39.8986 0.822116 39.8071 1.11326 39.8071 1.47928C39.8071 1.97839 39.9651 2.71873 40.2812 3.70032L43.3258 14.531C43.7251 13.1002 44.0661 11.5031 44.349 9.73954C44.6318 7.95939 44.7732 6.40383 44.7732 5.07287C44.7732 4.09128 44.6152 3.20121 44.299 2.40263C43.9829 1.60406 43.5753 1.00512 43.0762 0.605835H49.1903C49.0073 0.788842 48.9158 1.07999 48.9158 1.47928C48.9158 1.97839 49.0739 2.71873 49.39 3.70032L52.4096 14.3813C53.3745 10.7211 53.857 7.72647 53.857 5.39729C53.857 3.13466 53.3829 1.53751 52.4345 0.605835Z" fill="#09090B"/>
<path d="M112.6 0.310152H115.589V1.60427C115.529 1.28698 115.397 1.00891 115.194 0.770046C114.994 0.531186 114.782 0.411757 114.557 0.411757V3.34759C114.557 3.47237 114.559 3.56863 114.563 3.63636C114.566 3.7041 114.58 3.77718 114.605 3.85561C114.63 3.93048 114.666 3.97861 114.712 4H113.477C113.58 3.93583 113.632 3.71836 113.632 3.34759V0.411757C113.408 0.411757 113.194 0.531186 112.99 0.770046C112.791 1.00891 112.661 1.28698 112.6 1.60427V0.310152ZM119.713 3.34759C119.713 3.72905 119.763 3.94652 119.862 4H118.627C118.73 3.93583 118.782 3.71836 118.782 3.34759V0.743308L117.793 4H117.269L116.194 0.689832C116.212 1.37433 116.274 2.04634 116.381 2.70588C116.492 3.36185 116.62 3.79323 116.766 4H115.739C115.871 3.87166 115.96 3.67201 116.007 3.40107C116.053 3.12656 116.076 2.61319 116.076 1.86096V0.973255C116.076 0.584662 116.026 0.363628 115.927 0.310152H117.114L117.932 2.95187L118.729 0.310152H119.862C119.763 0.377888 119.713 0.598923 119.713 0.973255V3.34759Z" fill="#09090B"/>
<path fill-rule="evenodd" clip-rule="evenodd" d="M4.16153 1.96674C4.33285 2.91987 4.60237 3.90546 5.00323 4.81511C5.89513 6.83906 7.49964 8.59644 10.1886 8.59644V7.45052C8.12976 7.45052 6.84401 6.15064 6.05185 4.35302C5.65173 3.44506 5.39353 2.4382 5.24026 1.47393C6.10671 1.15364 7.04361 0.978699 8.02138 0.978699H10.3359C10.4797 2.21784 10.7816 3.58582 11.3233 4.81511C12.2152 6.83906 13.8197 8.59644 16.5086 8.59644V7.45052C14.4498 7.45052 13.164 6.15064 12.3719 4.35302C11.9026 3.28819 11.6286 2.08735 11.4901 0.978699H16.6563C16.8001 2.21784 17.102 3.58582 17.6437 4.81511C18.5356 6.83906 20.1401 8.59644 22.829 8.59644V7.45052C20.7702 7.45052 19.4845 6.15064 18.6923 4.35302C18.2231 3.28819 17.949 2.08735 17.8105 0.978699H23.7731C27.7456 0.978699 31.2385 3.60772 32.3377 7.42506L35.1012 17.0215C33.0833 14.8232 29.7882 14.3683 27.2502 15.9377L27.065 16.0522C26.0409 16.6855 24.8606 17.0209 23.6565 17.021L17.8105 17.0211C17.9491 15.9125 18.2231 14.7118 18.6923 13.6471C19.4845 11.8495 20.7702 10.5496 22.829 10.5496V9.40367C20.1401 9.40367 18.5356 11.161 17.6437 13.185C17.102 14.4142 16.8002 15.7821 16.6564 17.0211L11.4901 17.0212C11.6286 15.9126 11.9027 14.7119 12.3719 13.6471C13.164 11.8495 14.4498 10.5496 16.5086 10.5496V9.40367C13.8197 9.40367 12.2152 11.161 11.3233 13.185C10.7816 14.4142 10.4797 15.7822 10.3359 17.0213L8.02157 17.0213C7.04374 17.0214 6.10678 16.8464 5.24028 16.5261C5.39354 15.5618 5.65174 14.555 6.05185 13.6471C6.84401 11.8495 8.12976 10.5496 10.1886 10.5496V9.40367C7.49964 9.40367 5.89513 11.161 5.00323 13.185C4.60238 14.0946 4.33286 15.0802 4.16154 16.0333C1.68104 14.6691 6.10352e-05 12.0309 6.10352e-05 9.00001C6.10352e-05 5.96916 1.68103 3.33092 4.16153 1.96674Z" fill="#006AD4"/>
</svg>
