<svg width="144" height="26" viewBox="0 0 144 26" fill="none" xmlns="http://www.w3.org/2000/svg">
<path d="M27.6581 25.1177V5.48404H30.9501V7.56461H31.0423C31.2969 7.10811 31.6217 6.70429 32.0167 6.35314C32.4206 6.00199 32.8902 5.72546 33.4257 5.52355C33.97 5.32164 34.5801 5.22068 35.2561 5.22068C36.4412 5.22068 37.4815 5.52355 38.3769 6.12928C39.2812 6.72624 39.9878 7.57339 40.497 8.67073C41.015 9.76808 41.2739 11.0586 41.2739 12.5422C41.2739 14.0346 41.0194 15.3338 40.5102 16.4399C40.0098 17.5373 39.3075 18.3888 38.4033 18.9946C37.4991 19.5915 36.4456 19.89 35.2429 19.89C34.5757 19.89 33.9744 19.789 33.4389 19.5871C32.9122 19.3764 32.4513 19.0911 32.0562 18.7312C31.6612 18.3625 31.3364 17.9367 31.0818 17.4539H31.016V25.1177H27.6581ZM34.4133 17.0983C35.1332 17.0983 35.7477 16.9184 36.2569 16.5585C36.7748 16.1897 37.1743 15.6674 37.4552 14.9914C37.7361 14.3067 37.8766 13.4903 37.8766 12.5422C37.8766 11.5941 37.7361 10.782 37.4552 10.1061C37.1743 9.4301 36.7748 8.91215 36.2569 8.55222C35.7477 8.18351 35.1332 7.99916 34.4133 7.99916C33.6847 7.99916 33.0526 8.1879 32.5171 8.56539C31.9904 8.94288 31.5822 9.4696 31.2925 10.1456C31.0028 10.8215 30.8579 11.6204 30.8579 12.5422C30.8579 13.4552 31.0028 14.254 31.2925 14.9388C31.5822 15.6235 31.9948 16.1546 32.5303 16.5321C33.0658 16.9096 33.6935 17.0983 34.4133 17.0983ZM47.661 19.8637C46.7305 19.8637 45.9009 19.7056 45.1722 19.3896C44.4436 19.0648 43.8686 18.5907 43.4472 17.9674C43.0258 17.3354 42.8151 16.5497 42.8151 15.6103C42.8151 14.8115 42.9644 14.1531 43.2629 13.6351C43.5701 13.1084 43.9783 12.6914 44.4875 12.3842C45.0054 12.0681 45.5936 11.8311 46.252 11.6731C46.9192 11.5063 47.6083 11.3834 48.3194 11.3044C49.1797 11.2078 49.8645 11.1244 50.3737 11.0542C50.8916 10.9839 51.2603 10.8742 51.4798 10.725C51.708 10.5757 51.8222 10.3387 51.8222 10.0139V9.92171C51.8222 9.50033 51.7212 9.13162 51.5193 8.81558C51.3262 8.49955 51.0365 8.25813 50.6502 8.09134C50.2727 7.91576 49.8162 7.82797 49.2807 7.82797C48.7364 7.82797 48.258 7.91576 47.8454 8.09134C47.4328 8.25813 47.1036 8.49077 46.8578 8.78925C46.612 9.08773 46.4627 9.42571 46.41 9.80319L43.2102 9.61884C43.3331 8.70585 43.6579 7.92454 44.1846 7.27491C44.7201 6.6165 45.4224 6.11172 46.2915 5.76057C47.1694 5.40064 48.1834 5.22068 49.3334 5.22068C50.1761 5.22068 50.9531 5.32603 51.6641 5.53672C52.3752 5.73863 52.9897 6.04149 53.5077 6.44532C54.0344 6.84036 54.4382 7.34075 54.7191 7.94649C55.0088 8.54344 55.1537 9.23696 55.1537 10.0271V19.6135H51.888V17.6251H51.809C51.5983 18.0465 51.313 18.4283 50.9531 18.7707C50.5931 19.1043 50.141 19.372 49.5967 19.574C49.0612 19.7671 48.416 19.8637 47.661 19.8637ZM48.4906 17.3749C49.2105 17.3749 49.8206 17.2432 50.321 16.9798C50.8214 16.7077 51.1989 16.3522 51.4534 15.9132C51.7168 15.4655 51.8485 14.9695 51.8485 14.4252V12.8582C51.7431 12.9284 51.5807 12.9987 51.3613 13.0689C51.1418 13.1303 50.8828 13.1918 50.5843 13.2532C50.2946 13.3059 49.9874 13.3586 49.6626 13.4113C49.3465 13.4639 49.0349 13.5122 48.7276 13.5561C48.2448 13.6176 47.8015 13.7273 47.3977 13.8853C46.9938 14.0433 46.6734 14.2584 46.4364 14.5306C46.1994 14.8027 46.0808 15.1539 46.0808 15.584C46.0808 15.9615 46.1818 16.2863 46.3837 16.5585C46.5856 16.8218 46.8665 17.0237 47.2265 17.1642C47.5864 17.3046 48.0078 17.3749 48.4906 17.3749ZM61.1194 -0.00707443V19.6135H57.7615V-0.00707443H61.1194ZM63.7272 19.6135V5.48404H66.9402L66.9797 8.65757H66.7295C66.9754 7.87626 67.3177 7.23541 67.7567 6.73502C68.2044 6.22585 68.7223 5.84397 69.3105 5.58939C69.8987 5.3348 70.5132 5.20751 71.154 5.20751C72.2251 5.20751 73.1293 5.52355 73.8667 6.15562C74.6129 6.78769 75.0825 7.63484 75.2757 8.69707H74.8543C75.0474 7.97721 75.3678 7.35831 75.8156 6.84036C76.2721 6.31364 76.8251 5.90981 77.4748 5.62889C78.1244 5.34797 78.8311 5.20751 79.5948 5.20751C80.4727 5.20751 81.2628 5.40064 81.9651 5.78691C82.6762 6.1644 83.2336 6.72624 83.6374 7.47243C84.05 8.21863 84.2563 9.13601 84.2563 10.2246V19.6135H80.8985V10.7118C80.8985 9.79881 80.6483 9.13162 80.1479 8.71024C79.6475 8.28008 79.0418 8.065 78.3307 8.065C77.7776 8.065 77.2992 8.18351 76.8954 8.42054C76.4915 8.65757 76.1755 8.98677 75.9472 9.40815C75.7278 9.82953 75.618 10.3211 75.618 10.883V19.6135H72.3655V10.5669C72.3655 9.80319 72.1285 9.19746 71.6544 8.74974C71.1892 8.29325 70.5878 8.065 69.8504 8.065C69.35 8.065 68.8891 8.18351 68.4677 8.42054C68.0464 8.64879 67.7084 8.99116 67.4538 9.44765C67.208 9.89537 67.0851 10.4484 67.0851 11.1068V19.6135H63.7272Z" fill="#09090B"/>
<path d="M93.4461 19.6135H89.9122V17.7172H93.3216C94.407 17.7172 95.3072 17.5129 96.0223 17.1043C96.7437 16.6957 97.2832 16.0988 97.6407 15.3135C97.9983 14.5282 98.177 13.5769 98.177 12.4596C98.177 11.3486 97.9983 10.4037 97.6407 9.62481C97.2896 8.84589 96.7629 8.25532 96.0606 7.85309C95.3646 7.44448 94.4931 7.24017 93.4461 7.24017H89.8452V5.34396H93.5802C94.9848 5.34396 96.1883 5.62807 97.1906 6.1963C98.1994 6.76452 98.9719 7.58175 99.5082 8.64797C100.045 9.71419 100.313 10.9847 100.313 12.4596C100.313 13.9408 100.041 15.2177 99.4986 16.2903C98.9623 17.3565 98.1802 18.1769 97.1523 18.7515C96.1308 19.3262 94.8954 19.6135 93.4461 19.6135ZM90.9753 5.34396V19.6135H88.8109V5.34396H90.9753ZM108.377 19.8146C107.132 19.8146 106.021 19.5177 105.044 18.9239C104.067 18.3238 103.298 17.4778 102.736 16.3861C102.174 15.2879 101.893 13.9887 101.893 12.4883C101.893 10.9815 102.174 9.67908 102.736 8.58093C103.298 7.48279 104.067 6.63683 105.044 6.04307C106.021 5.44292 107.132 5.14284 108.377 5.14284C109.622 5.14284 110.729 5.44292 111.7 6.04307C112.677 6.63683 113.446 7.48279 114.008 8.58093C114.57 9.67908 114.851 10.9815 114.851 12.4883C114.851 13.9887 114.57 15.2879 114.008 16.3861C113.446 17.4842 112.677 18.3302 111.7 18.9239C110.729 19.5177 109.622 19.8146 108.377 19.8146ZM108.377 17.8417C109.188 17.8417 109.919 17.6374 110.57 17.2288C111.221 16.8138 111.735 16.2073 112.112 15.4092C112.495 14.6112 112.686 13.6375 112.686 12.4883C112.686 11.3263 112.495 10.3463 112.112 9.54819C111.735 8.75012 111.221 8.14678 110.57 7.73817C109.919 7.32317 109.188 7.11567 108.377 7.11567C107.56 7.11567 106.825 7.32317 106.174 7.73817C105.523 8.14678 105.006 8.75332 104.623 9.55777C104.24 10.3558 104.048 11.3327 104.048 12.4883C104.048 13.6375 104.24 14.6112 104.623 15.4092C105.006 16.2073 105.523 16.8138 106.174 17.2288C106.825 17.6374 107.56 17.8417 108.377 17.8417ZM122.924 19.8146C121.66 19.8146 120.54 19.5177 119.563 18.9239C118.586 18.3302 117.817 17.4842 117.255 16.3861C116.699 15.2879 116.422 13.9887 116.422 12.4883C116.422 10.9815 116.699 9.67908 117.255 8.58093C117.817 7.48279 118.586 6.63683 119.563 6.04307C120.546 5.44292 121.667 5.14284 122.924 5.14284C123.678 5.14284 124.386 5.25457 125.05 5.47803C125.721 5.69511 126.318 6.01434 126.841 6.43572C127.365 6.8571 127.799 7.36786 128.144 7.96801C128.489 8.56816 128.722 9.24812 128.843 10.0079H126.659C126.564 9.54181 126.401 9.13001 126.171 8.77247C125.947 8.41493 125.67 8.11167 125.338 7.86267C125.012 7.61367 124.645 7.42852 124.236 7.30721C123.828 7.17952 123.394 7.11567 122.934 7.11567C122.085 7.11567 121.331 7.32956 120.674 7.75732C120.016 8.1787 119.502 8.79162 119.132 9.59608C118.762 10.3941 118.577 11.3582 118.577 12.4883C118.577 13.6184 118.762 14.5824 119.132 15.3805C119.509 16.1786 120.023 16.7883 120.674 17.2097C121.331 17.6311 122.085 17.8417 122.934 17.8417C123.394 17.8417 123.825 17.7779 124.227 17.6502C124.635 17.5225 125.006 17.3374 125.338 17.0948C125.67 16.8521 125.947 16.5521 126.171 16.1945C126.401 15.8306 126.564 15.4188 126.659 14.9591H128.843C128.734 15.6806 128.511 16.3382 128.173 16.9319C127.834 17.5257 127.403 18.0397 126.88 18.4738C126.362 18.9016 125.769 19.2336 125.098 19.4698C124.428 19.6997 123.703 19.8146 122.924 19.8146ZM135.7 19.8433C134.609 19.8433 133.664 19.6677 132.866 19.3166C132.067 18.959 131.445 18.4515 130.998 17.7939C130.558 17.1363 130.321 16.351 130.289 15.438H132.463C132.495 15.9934 132.652 16.4595 132.933 16.8362C133.22 17.2065 133.603 17.4874 134.082 17.6789C134.561 17.8641 135.097 17.9567 135.691 17.9567C136.31 17.9567 136.856 17.8641 137.328 17.6789C137.801 17.4874 138.171 17.2193 138.439 16.8745C138.714 16.5233 138.851 16.1179 138.851 15.6582C138.851 15.2624 138.739 14.9304 138.516 14.6622C138.299 14.3941 137.989 14.1674 137.587 13.9823C137.185 13.7971 136.703 13.6343 136.141 13.4939L134.503 13.0629C133.245 12.7437 132.288 12.2776 131.63 11.6647C130.979 11.0454 130.653 10.2473 130.653 9.27047C130.653 8.44047 130.87 7.71582 131.305 7.09652C131.745 6.47722 132.345 5.99838 133.105 5.65999C133.871 5.31523 134.743 5.14284 135.719 5.14284C136.709 5.14284 137.577 5.31842 138.324 5.66957C139.071 6.01434 139.656 6.49637 140.077 7.11567C140.505 7.73498 140.728 8.45005 140.747 9.26089H138.64C138.577 8.5522 138.276 8.00313 137.74 7.61367C137.204 7.21783 136.514 7.01991 135.672 7.01991C135.103 7.01991 134.602 7.11248 134.168 7.29763C133.74 7.48279 133.405 7.73498 133.162 8.05421C132.926 8.37343 132.808 8.74055 132.808 9.15554C132.808 9.57054 132.933 9.91531 133.182 10.1898C133.431 10.458 133.753 10.6783 134.149 10.8506C134.551 11.0166 134.979 11.1571 135.432 11.272L136.869 11.6455C137.405 11.7732 137.919 11.9424 138.411 12.1531C138.909 12.3638 139.352 12.6256 139.742 12.9384C140.131 13.2512 140.438 13.6311 140.661 14.078C140.891 14.5186 141.006 15.0389 141.006 15.6391C141.006 16.4627 140.792 17.1937 140.364 17.8322C139.943 18.4642 139.336 18.959 138.545 19.3166C137.753 19.6677 136.805 19.8433 135.7 19.8433Z" fill="#9F9FA9"/>
<circle cx="11.4104" cy="12.5895" r="11.4104" fill="url(#paint0_radial_17823_14318)"/>
<path fill-rule="evenodd" clip-rule="evenodd" d="M12.5617 6.27258C11.4642 7.22944 10.3328 8.72886 9.83643 10.5522C18.1742 13.3109 18.4505 19.2958 17.3471 22.3404L17.3974 22.369C18.5077 21.2526 19.6277 19.3292 19.7102 16.9566H18.206L19.5861 15.2315C19.3672 14.0047 18.8547 12.694 17.9335 11.3387H16.1505L17.0651 10.1954C15.9814 8.90656 14.5116 7.58822 12.5617 6.27258Z" fill="white"/>
<path fill-rule="evenodd" clip-rule="evenodd" d="M5.30396 13.1419C5.37463 11.8889 5.71281 10.7244 6.14217 9.8067C10.2531 10.5438 12.9828 11.9006 14.7409 13.4992L14.0176 14.4032H15.6147C18.0172 17.2475 17.8341 20.5886 17.0717 22.5748C12.4682 22.1087 9.53726 20.8235 7.75011 19.1945L8.39917 17.8933L6.84802 18.2272C5.79679 16.8895 5.35982 15.4026 5.2981 13.9813L5.96904 13.1414L5.30396 13.1419Z" fill="#5DE317"/>
<defs>
<radialGradient id="paint0_radial_17823_14318" cx="0" cy="0" r="1" gradientUnits="userSpaceOnUse" gradientTransform="translate(12.523 1.17908) rotate(109.62) scale(17.2458 31.0052)">
<stop offset="0.312068" stop-color="#329100"/>
<stop offset="1" stop-color="#5DE317"/>
</radialGradient>
</defs>
</svg>
