<svg width="20" height="20" viewBox="0 0 20 20" fill="none" xmlns="http://www.w3.org/2000/svg">
  <path
    d="M9.492 0.260444C9.80841 -0.0792116 10.2006 -0.0903629 10.5175 0.248851C11.2885 1.0741 12.6485 2.84877 12.6486 4.87885C12.6486 5.91149 12.2917 6.87065 11.8434 7.67499L15.8083 3.71002C15.7899 3.649 15.7767 3.58523 15.7767 3.5182C15.7767 3.14927 16.076 2.85 16.4449 2.85C16.8138 2.85003 17.1131 3.14929 17.1131 3.5182C17.1129 3.88691 16.8137 4.18532 16.4449 4.18536C16.3895 4.18536 16.3362 4.17698 16.2847 4.16428L12.2565 8.19247C13.0743 7.72591 14.0595 7.3504 15.1211 7.35037C17.1559 7.35047 18.9135 8.72267 19.7396 9.492C20.0792 9.80837 20.0902 10.2006 19.7512 10.5175C18.9259 11.2885 17.1512 12.6485 15.1211 12.6486C14.0946 12.6486 13.1402 12.2964 12.3387 11.8518L16.2584 15.8947C16.3189 15.8777 16.382 15.8663 16.4481 15.8673C16.815 15.8731 17.1082 16.175 17.1026 16.5419C17.0968 16.9087 16.7948 17.2019 16.428 17.1964C16.0611 17.1906 15.7678 16.8877 15.7735 16.5208C15.7744 16.4664 15.7836 16.4141 15.7967 16.3638L11.7959 12.2375C12.2676 13.0591 12.6495 14.0512 12.6496 15.1211C12.6495 17.1558 11.2774 18.9135 10.508 19.7396C10.1916 20.0792 9.79943 20.0904 9.48251 19.7511C8.71148 18.9258 7.35152 17.1511 7.35142 15.1211C7.35153 14.0963 7.70143 13.1426 8.14505 12.3419L4.09261 16.271C4.10966 16.3316 4.12208 16.3946 4.12106 16.4607C4.11532 16.8279 3.81265 17.121 3.44548 17.1152C3.07842 17.1094 2.78524 16.8067 2.79098 16.4396C2.79699 16.0727 3.09956 15.7804 3.46656 15.7862C3.52088 15.787 3.57325 15.7952 3.6236 15.8083L7.76563 11.7938C6.94342 12.2664 5.95022 12.6495 4.87886 12.6496C2.84398 12.6495 1.08642 11.2773 0.260444 10.508C-0.0792116 10.1916 -0.0903629 9.79943 0.248851 9.48251C1.07421 8.71146 2.84898 7.35152 4.87886 7.35142C5.83622 7.3515 6.73134 7.65704 7.49792 8.05862L3.95665 4.40563C3.89643 4.42252 3.83371 4.43403 3.76799 4.43303C3.40154 4.4273 3.1089 4.12599 3.11454 3.75956C3.12027 3.39317 3.42167 3.10057 3.78802 3.10611C4.15452 3.11184 4.4472 3.41413 4.44147 3.78064C4.44059 3.83431 4.43113 3.88578 4.41828 3.93557L8.32422 7.96588C7.79835 7.10734 7.35037 6.03875 7.35037 4.87885C7.35047 2.84387 8.72272 1.08636 9.492 0.260444Z"
    fill="url(#luma_theme_favicon_radial_gradient)" />
  <circle cx="10" cy="10.3362" r="1.50083" stroke="#FFE8B0" stroke-width="1.07925" />
  <defs>
    <radialGradient id="luma_theme_favicon_radial_gradient" cx="0" cy="0" r="1" gradientUnits="userSpaceOnUse"
      gradientTransform="translate(9.99997 10) rotate(39.1137) scale(8.00296 8.00294)">
      <stop offset="0.254529" stop-color="#FF6600" />
      <stop offset="0.762079" stop-color="#FFECB7" />
      <stop offset="1" stop-color="#FFCC7F" />
    </radialGradient>
  </defs>
</svg>